<svg width="40" height="40" viewBox="0 0 40 40" fill="none" xmlns="http://www.w3.org/2000/svg" xmlns:xlink="http://www.w3.org/1999/xlink">
<path d="M25.11,8.822C24.525,8.236 23.575,8.236 22.989,8.822C22.403,9.408 22.403,10.358 22.989,10.943L25.11,8.822ZM34.166,19.999L35.227,21.06C35.508,20.779 35.666,20.397 35.666,19.999C35.666,19.602 35.508,19.22 35.227,18.939L34.166,19.999ZM22.989,29.055C22.403,29.641 22.403,30.591 22.989,31.177C23.575,31.763 24.525,31.763 25.11,31.177L22.989,29.055ZM22.989,10.943L33.106,21.06L35.227,18.939L25.11,8.822L22.989,10.943ZM33.106,18.939L22.989,29.055L25.11,31.177L35.227,21.06L33.106,18.939Z" fill="#61DA5E"/>
<line x1="5.833" y1="18.5" x2="33.883" y2="18.5" stroke="#61DA5E" stroke-width="1.5" stroke-miterlimit="10" stroke-linecap="round" stroke-linejoin="round"/>
</svg>
