<svg width="40" height="40" viewBox="0 0 40 40" fill="none" xmlns="http://www.w3.org/2000/svg" xmlns:xlink="http://www.w3.org/1999/xlink">
<path d="M25.11,8.823C24.525,8.237 23.575,8.237 22.989,8.823C22.403,9.409 22.403,10.359 22.989,10.944L25.11,8.823ZM34.166,20L35.227,21.061C35.508,20.78 35.666,20.398 35.666,20C35.666,19.603 35.508,19.221 35.227,18.94L34.166,20ZM22.989,29.056C22.403,29.642 22.403,30.592 22.989,31.178C23.575,31.764 24.525,31.764 25.11,31.178L22.989,29.056ZM22.989,10.944L33.106,21.061L35.227,18.94L25.11,8.823L22.989,10.944ZM33.106,18.94L22.989,29.056L25.11,31.178L35.227,21.061L33.106,18.94Z" fill="#61DA5E"/>
<line x1="5.833" y1="18.5" x2="33.883" y2="18.5" stroke="#61DA5E" stroke-width="1.5" stroke-miterlimit="10" stroke-linecap="round" stroke-linejoin="round"/>
</svg>
