<svg width="148" height="70" viewBox="0 0 148 70" fill="none" xmlns="http://www.w3.org/2000/svg" xmlns:xlink="http://www.w3.org/1999/xlink">
<g filter="url(#filter146_1759)">
<rect  x="76.001" y="0" width="70" height="70" rx="10" fill="#FFFFFF"/>
</g>
<path d="M131.001,35.074C131.829,35.074 132.501,34.402 132.501,33.574C132.501,32.746 131.829,32.074 131.001,32.074L131.001,35.074ZM106.291,32.074C105.463,32.074 104.791,32.746 104.791,33.574C104.791,34.402 105.463,35.074 106.291,35.074L106.291,32.074ZM94.001,32.074C93.173,32.074 92.501,32.746 92.501,33.574C92.501,34.402 93.173,35.074 94.001,35.074L94.001,32.074ZM131.001,48.288C131.829,48.288 132.501,47.616 132.501,46.788C132.501,45.96 131.829,45.288 131.001,45.288L131.001,48.288ZM94.001,45.288C93.173,45.288 92.501,45.96 92.501,46.788C92.501,47.616 93.173,48.288 94.001,48.288L94.001,45.288ZM131.001,21.86C131.829,21.86 132.501,21.188 132.501,20.36C132.501,19.532 131.829,18.86 131.001,18.86L131.001,21.86ZM124.791,18.86C123.963,18.86 123.291,19.532 123.291,20.36C123.291,21.188 123.963,21.86 124.791,21.86L124.791,18.86ZM94.001,18.86C93.173,18.86 92.501,19.532 92.501,20.36C92.501,21.188 93.173,21.86 94.001,21.86L94.001,18.86ZM120.429,24.72L120.429,26.22L120.429,24.72ZM124.789,20.36L126.289,20.36L124.789,20.36ZM106.289,33.574L107.789,33.574L106.289,33.574ZM115.143,51.15L115.143,52.65L115.143,51.15ZM115.143,42.428L115.143,40.928L115.143,42.428ZM131.001,32.074L106.291,32.074L106.291,35.074L131.001,35.074L131.001,32.074ZM97.569,32.074L94.001,32.074L94.001,35.074L97.569,35.074L97.569,32.074ZM131.001,45.288L119.505,45.288L119.505,48.288L131.001,48.288L131.001,45.288ZM110.783,45.288L94.001,45.288L94.001,48.288L110.783,48.288L110.783,45.288ZM131.001,18.86L124.791,18.86L124.791,21.86L131.001,21.86L131.001,18.86ZM116.069,18.86L94.001,18.86L94.001,21.86L116.069,21.86L116.069,18.86ZM120.429,26.22C121.199,26.22 121.961,26.068 122.672,25.774L121.523,23.002C121.176,23.146 120.805,23.22 120.429,23.22L120.429,26.22ZM122.672,25.774C123.382,25.479 124.028,25.048 124.573,24.504L122.451,22.382C122.186,22.648 121.87,22.859 121.523,23.002L122.672,25.774ZM124.573,24.504C125.117,23.96 125.548,23.314 125.843,22.603L123.071,21.454C122.928,21.801 122.717,22.117 122.451,22.382L124.573,24.504ZM125.843,22.603C126.137,21.892 126.289,21.13 126.289,20.36L123.289,20.36C123.289,20.736 123.215,21.107 123.071,21.454L125.843,22.603ZM126.289,20.36C126.289,19.59 126.137,18.828 125.843,18.117L123.071,19.266C123.215,19.613 123.289,19.984 123.289,20.36L126.289,20.36ZM125.843,18.117C125.548,17.407 125.117,16.761 124.573,16.216L122.451,18.338C122.717,18.603 122.928,18.919 123.071,19.266L125.843,18.117ZM124.573,16.216C124.028,15.672 123.382,15.241 122.672,14.946L121.523,17.718C121.87,17.861 122.186,18.072 122.451,18.338L124.573,16.216ZM122.672,14.946C121.961,14.652 121.199,14.5 120.429,14.5L120.429,17.5C120.805,17.5 121.176,17.574 121.523,17.718L122.672,14.946ZM120.429,14.5C118.875,14.5 117.384,15.117 116.285,16.216L118.407,18.338C118.943,17.801 119.67,17.5 120.429,17.5L120.429,14.5ZM116.285,16.216C115.186,17.315 114.569,18.806 114.569,20.36L117.569,20.36C117.569,19.601 117.87,18.874 118.407,18.338L116.285,16.216ZM114.569,20.36C114.569,21.914 115.186,23.405 116.285,24.504L118.407,22.382C117.87,21.846 117.569,21.119 117.569,20.36L114.569,20.36ZM116.285,24.504C117.384,25.603 118.875,26.22 120.429,26.22L120.429,23.22C119.67,23.22 118.943,22.919 118.407,22.382L116.285,24.504ZM101.929,39.434C103.483,39.434 104.974,38.817 106.073,37.718L103.951,35.596C103.415,36.133 102.687,36.434 101.929,36.434L101.929,39.434ZM106.073,37.718C107.172,36.619 107.789,35.128 107.789,33.574L104.789,33.574C104.789,34.333 104.488,35.06 103.951,35.596L106.073,37.718ZM107.789,33.574C107.789,32.02 107.172,30.529 106.073,29.43L103.951,31.552C104.488,32.088 104.789,32.815 104.789,33.574L107.789,33.574ZM106.073,29.43C104.974,28.331 103.483,27.714 101.929,27.714L101.929,30.714C102.687,30.714 103.415,31.015 103.951,31.552L106.073,29.43ZM101.929,27.714C100.375,27.714 98.884,28.331 97.785,29.43L99.907,31.552C100.443,31.015 101.17,30.714 101.929,30.714L101.929,27.714ZM97.785,29.43C96.686,30.529 96.069,32.02 96.069,33.574L99.069,33.574C99.069,32.815 99.37,32.088 99.907,31.552L97.785,29.43ZM96.069,33.574C96.069,35.128 96.686,36.619 97.785,37.718L99.907,35.596C99.37,35.06 99.069,34.333 99.069,33.574L96.069,33.574ZM97.785,37.718C98.884,38.817 100.375,39.434 101.929,39.434L101.929,36.434C101.17,36.434 100.443,36.133 99.907,35.596L97.785,37.718ZM115.143,52.65C116.697,52.65 118.188,52.033 119.287,50.933L117.166,48.812C116.629,49.349 115.902,49.65 115.143,49.65L115.143,52.65ZM119.287,50.933C120.386,49.835 121.005,48.343 121.005,46.788L118.005,46.788C118.005,47.546 117.703,48.275 117.166,48.812L119.287,50.933ZM121.005,46.788C121.005,45.232 120.386,43.743 119.287,42.645L117.166,44.766C117.703,45.303 118.005,46.03 118.005,46.788L121.005,46.788ZM119.287,42.645C118.188,41.545 116.697,40.928 115.143,40.928L115.143,43.928C115.902,43.928 116.629,44.229 117.166,44.766L119.287,42.645ZM115.143,40.928C113.589,40.928 112.098,41.545 110.999,42.644L113.121,44.766C113.657,44.229 114.384,43.928 115.143,43.928L115.143,40.928ZM110.999,42.644C109.9,43.743 109.283,45.234 109.283,46.788L112.283,46.788C112.283,46.029 112.584,45.302 113.121,44.766L110.999,42.644ZM109.283,46.788C109.283,48.342 109.9,49.833 110.999,50.932L113.121,48.81C112.584,48.274 112.283,47.547 112.283,46.788L109.283,46.788ZM110.999,50.932C112.097,52.029 113.587,52.65 115.143,52.65L115.143,49.65C114.386,49.65 113.658,49.348 113.121,48.81L110.999,50.932Z" fill="#000000"/>
<path d="M7.617,37.54L0.187,28.624C-0.008,28.39 -0.132,28.106 -0.17,27.804C-0.209,27.503 -0.161,27.196 -0.032,26.921C0.097,26.646 0.302,26.413 0.558,26.25C0.815,26.086 1.113,26 1.417,26L14.585,26C14.889,26 15.187,26.087 15.443,26.25C15.699,26.414 15.904,26.647 16.033,26.922C16.162,27.197 16.209,27.503 16.17,27.805C16.132,28.106 16.008,28.39 15.813,28.624L8.385,37.54C8.338,37.596 8.279,37.642 8.213,37.673C8.147,37.704 8.074,37.72 8.001,37.72C7.928,37.72 7.855,37.704 7.789,37.673C7.723,37.642 7.664,37.596 7.617,37.54Z" fill="#000000"/>
<defs>
<filter id="filter146_1759" x="72.000977" y="-4" width="43" height="49" filterUnits="userSpaceOnUse" color-interpolation-filters="sRGB">
<feFlood flood-opacity="0" result="BackgroundImageFix"/>
<feColorMatrix in="SourceAlpha" type="matrix" values="0 0 0 0 0 0 0 0 0 0 0 0 0 0 0 0 0 0 127 0" result="hardAlpha"/>
<feMorphology radius="0" operator="dilate" in="SourceAlpha" result="0dropshadow"/>
<feOffset dx="0" dy="10"/>
<feGaussianBlur stdDeviation="2"/>
<feComposite in2="hardAlpha" operator="out"/>
<feColorMatrix type="matrix" values="0 0 0 0 0 0 0 0 0 0 0 0 0 0 0 0 0 0 0.25 0"/>
<feBlend mode="normal" in2="BackgroundImageFix" result="0dropshadow"/>
<feBlend mode="normal" in="SourceGraphic" in2="0dropshadow" result="shape"/>
</filter>
</defs>
</svg>
