<svg width="48" height="48" viewBox="0 0 48 48" fill="none" xmlns="http://www.w3.org/2000/svg" xmlns:xlink="http://www.w3.org/1999/xlink">
<path d="M43,8L37.666,8L37.666,12C37.666,12.385 37.59,12.767 37.443,13.123C37.296,13.479 37.08,13.802 36.807,14.074C36.535,14.347 36.211,14.563 35.856,14.71C35.5,14.858 35.118,14.933 34.733,14.933C34.348,14.933 33.966,14.858 33.61,14.71C33.255,14.563 32.931,14.347 32.659,14.074C32.386,13.802 32.17,13.479 32.023,13.123C31.876,12.767 31.8,12.385 31.8,12L31.8,8L16.266,8L16.266,12C16.266,12.778 15.957,13.524 15.407,14.074C14.857,14.624 14.111,14.933 13.333,14.933C12.555,14.933 11.809,14.624 11.259,14.074C10.709,13.524 10.4,12.778 10.4,12L10.4,8L5.066,8C4.749,7.997 4.434,8.057 4.141,8.177C3.847,8.297 3.58,8.475 3.357,8.7C3.133,8.925 2.956,9.192 2.838,9.487C2.719,9.781 2.661,10.096 2.666,10.413L2.666,40.253C2.661,40.565 2.717,40.875 2.832,41.165C2.946,41.455 3.116,41.719 3.333,41.944C3.55,42.168 3.808,42.347 4.094,42.471C4.38,42.595 4.688,42.662 5,42.667L43,42.667C43.311,42.662 43.619,42.595 43.905,42.471C44.191,42.347 44.45,42.168 44.666,41.944C44.883,41.719 45.053,41.455 45.168,41.165C45.282,40.875 45.338,40.565 45.333,40.253L45.333,10.413C45.338,10.102 45.282,9.792 45.168,9.502C45.053,9.212 44.883,8.948 44.666,8.723C44.45,8.499 44.191,8.32 43.905,8.196C43.619,8.072 43.311,8.005 43,8ZM13.333,34.667L10.666,34.667L10.666,32L13.333,32L13.333,34.667ZM13.333,28L10.666,28L10.666,25.333L13.333,25.333L13.333,28ZM13.333,21.333L10.666,21.333L10.666,18.667L13.333,18.667L13.333,21.333ZM21.333,34.667L18.666,34.667L18.666,32L21.333,32L21.333,34.667ZM21.333,28L18.666,28L18.666,25.333L21.333,25.333L21.333,28ZM21.333,21.333L18.666,21.333L18.666,18.667L21.333,18.667L21.333,21.333ZM29.333,34.667L26.666,34.667L26.666,32L29.333,32L29.333,34.667ZM29.333,28L26.666,28L26.666,25.333L29.333,25.333L29.333,28ZM29.333,21.333L26.666,21.333L26.666,18.667L29.333,18.667L29.333,21.333ZM37.333,34.667L34.666,34.667L34.666,32L37.333,32L37.333,34.667ZM37.333,28L34.666,28L34.666,25.333L37.333,25.333L37.333,28ZM37.333,21.333L34.666,21.333L34.666,18.667L37.333,18.667L37.333,21.333Z" fill="#000000"/>
<path d="M13.333,13.333C13.687,13.333 14.026,13.192 14.276,12.942C14.526,12.692 14.667,12.353 14.667,11.999L14.667,3.999C14.667,3.646 14.526,3.307 14.276,3.057C14.026,2.806 13.687,2.666 13.333,2.666C12.98,2.666 12.641,2.806 12.391,3.057C12.14,3.307 12,3.646 12,3.999L12,11.999C12,12.353 12.14,12.692 12.391,12.942C12.641,13.192 12.98,13.333 13.333,13.333Z" fill="#000000"/>
<path d="M34.666,13.333C35.02,13.333 35.359,13.192 35.609,12.942C35.859,12.692 36,12.353 36,11.999L36,3.999C36,3.646 35.859,3.307 35.609,3.057C35.359,2.806 35.02,2.666 34.666,2.666C34.313,2.666 33.974,2.806 33.724,3.057C33.473,3.307 33.333,3.646 33.333,3.999L33.333,11.999C33.333,12.353 33.473,12.692 33.724,12.942C33.974,13.192 34.313,13.333 34.666,13.333Z" fill="#000000"/>
</svg>
