<svg width="18" height="16" viewBox="0 0 18 16" fill="none" xmlns="http://www.w3.org/2000/svg" xmlns:xlink="http://www.w3.org/1999/xlink">
<path d="M9.544,-0.222L11.799,3.938L16.416,4.366C16.894,4.407 17.297,4.696 17.434,5.099C17.572,5.501 17.417,5.936 17.042,6.2L13.361,8.847L14.5,13.298C14.604,13.702 14.421,14.122 14.036,14.364C13.651,14.606 13.139,14.623 12.733,14.408L8.476,12.142L4.215,14.407C3.809,14.621 3.297,14.604 2.912,14.362C2.527,14.121 2.344,13.701 2.447,13.297L3.591,8.847L-0.09,6.2C-0.462,5.936 -0.615,5.502 -0.478,5.101C-0.34,4.7 0.061,4.411 0.537,4.369L5.153,3.941L7.408,-0.222C7.604,-0.583 8.019,-0.813 8.476,-0.813C8.933,-0.813 9.348,-0.583 9.544,-0.222Z" clip-rule="evenodd" fill-rule="evenodd" fill="#F6F6F6"/>
</svg>
