<svg width="18" height="18" viewBox="0 0 18 18" fill="none" xmlns="http://www.w3.org/2000/svg" xmlns:xlink="http://www.w3.org/1999/xlink">
<path d="M9.544,0.163L11.799,4.92L16.417,5.41C16.895,5.456 17.297,5.787 17.434,6.247C17.572,6.708 17.417,7.205 17.043,7.506L13.361,10.533L14.5,15.623C14.604,16.085 14.422,16.565 14.037,16.841C13.652,17.118 13.139,17.138 12.734,16.891L8.476,14.301L4.215,16.89C3.81,17.136 3.297,17.116 2.912,16.84C2.527,16.563 2.344,16.084 2.447,15.621L3.591,10.533L-0.09,7.506C-0.462,7.204 -0.615,6.708 -0.477,6.25C-0.34,5.791 0.061,5.461 0.537,5.413L5.153,4.924L7.408,0.163C7.604,-0.249 8.02,-0.512 8.476,-0.512C8.933,-0.512 9.348,-0.249 9.544,0.163Z" clip-rule="evenodd" fill-rule="evenodd" fill="#FFFFFF"/>
</svg>
