<svg width="1004" height="194" viewBox="0 0 1004 194" fill="none" xmlns="http://www.w3.org/2000/svg" xmlns:xlink="http://www.w3.org/1999/xlink">
<rect  x="4" y="16" width="800" height="152" rx="32" fill="#F6F6F6"/>
<path d="M0,16C22.076,16 26.802,36.125 32.318,59.611C40.044,92.509 49.319,132 110,132C170.681,132 179.956,92.509 187.682,59.611C193.198,36.125 197.924,16 220,16L0,16Z" clip-rule="evenodd" fill-rule="evenodd" fill="#F6F6F6"/>
<circle cx="110" cy="56" r="56" fill="#11477E"/>
<rect  x="32" y="16" width="156" height="80" fill="#FFFFFF" fill-opacity="0"/>
<path d="M127.031,52.954L112.031,38.801C112.023,38.795 112.016,38.788 112.01,38.781C111.458,38.278 110.738,38 109.992,38C109.245,38 108.525,38.278 107.973,38.781L107.952,38.801L92.969,52.954C92.664,53.235 92.42,53.576 92.253,53.956C92.086,54.337 92,54.747 92,55.162L92,72.497C92,73.292 92.316,74.056 92.879,74.618C93.441,75.181 94.204,75.497 95,75.497L104,75.497C104.796,75.497 105.559,75.181 106.121,74.618C106.684,74.056 107,73.292 107,72.497L107,63.497L113,63.497L113,72.497C113,73.292 113.316,74.056 113.879,74.618C114.441,75.181 115.204,75.497 116,75.497L125,75.497C125.796,75.497 126.559,75.181 127.121,74.618C127.684,74.056 128,73.292 128,72.497L128,55.162C128,54.747 127.914,54.337 127.747,53.956C127.58,53.576 127.336,53.235 127.031,52.954ZM125,72.497L116,72.497L116,63.497C116,62.701 115.684,61.938 115.121,61.375C114.559,60.813 113.796,60.497 113,60.497L107,60.497C106.204,60.497 105.441,60.813 104.879,61.375C104.316,61.938 104,62.701 104,63.497L104,72.497L95,72.497L95,55.162L95.021,55.144L110,40.997L124.981,55.14L125.002,55.159L125,72.497Z" fill="#F6F6F6"/>
<rect  x="612" y="72" width="156" height="80" fill="#FFFFFF" fill-opacity="0"/>
<path d="M689.024,95.072C687.564,95.072 686.197,95.638 685.162,96.673C684.132,97.709 683.561,99.076 683.561,100.536C683.561,101.996 684.132,103.363 685.162,104.398C686.197,105.428 687.564,106 689.024,106C690.484,106 691.852,105.428 692.887,104.398C693.917,103.363 694.488,101.996 694.488,100.536C694.488,99.076 693.917,97.709 692.887,96.673C692.381,96.164 691.779,95.76 691.116,95.485C690.453,95.21 689.742,95.07 689.024,95.072ZM709.156,106.571L705.963,103.841C706.114,102.914 706.192,101.966 706.192,101.024C706.192,100.082 706.114,99.129 705.963,98.207L709.156,95.477C709.397,95.271 709.57,94.995 709.651,94.688C709.732,94.381 709.718,94.057 709.61,93.758L709.566,93.631C708.688,91.174 707.371,88.896 705.68,86.908L705.592,86.805C705.386,86.564 705.113,86.39 704.807,86.307C704.501,86.225 704.177,86.236 703.878,86.341L699.913,87.752C698.448,86.551 696.817,85.604 695.05,84.945L694.283,80.799C694.225,80.487 694.074,80.2 693.849,79.976C693.624,79.751 693.336,79.601 693.023,79.544L692.892,79.52C690.353,79.061 687.677,79.061 685.138,79.52L685.006,79.544C684.693,79.601 684.405,79.751 684.18,79.976C683.955,80.2 683.804,80.487 683.746,80.799L682.975,84.964C681.224,85.629 679.593,86.574 678.145,87.762L674.151,86.341C673.852,86.236 673.528,86.223 673.222,86.306C672.916,86.389 672.642,86.563 672.437,86.805L672.35,86.908C670.662,88.898 669.345,91.175 668.463,93.631L668.419,93.758C668.199,94.369 668.38,95.052 668.873,95.477L672.105,98.236C671.954,99.154 671.881,100.091 671.881,101.019C671.881,101.957 671.954,102.894 672.105,103.802L668.883,106.561C668.642,106.768 668.469,107.043 668.388,107.35C668.307,107.657 668.321,107.981 668.429,108.28L668.473,108.407C669.356,110.863 670.66,113.133 672.359,115.13L672.447,115.233C672.653,115.474 672.926,115.648 673.232,115.731C673.538,115.814 673.862,115.802 674.161,115.697L678.155,114.276C679.61,115.472 681.231,116.419 682.984,117.074L683.756,121.239C683.814,121.551 683.965,121.838 684.19,122.063C684.415,122.287 684.703,122.437 685.016,122.494L685.147,122.518C687.711,122.98 690.337,122.98 692.901,122.518L693.033,122.494C693.346,122.437 693.634,122.287 693.859,122.063C694.084,121.838 694.235,121.551 694.293,121.239L695.06,117.093C696.827,116.429 698.458,115.487 699.923,114.286L703.888,115.697C704.187,115.803 704.511,115.815 704.817,115.732C705.123,115.649 705.397,115.475 705.602,115.233L705.689,115.13C707.389,113.124 708.692,110.863 709.576,108.407L709.62,108.28C709.83,107.674 709.649,106.996 709.156,106.571ZM689.024,109.12C684.283,109.12 680.44,105.277 680.44,100.536C680.44,95.794 684.283,91.952 689.024,91.952C693.766,91.952 697.608,95.794 697.608,100.536C697.608,105.277 693.766,109.12 689.024,109.12Z" fill="#000000"/>
<rect  x="476" y="38" width="60" height="80" fill="#FFFFFF" fill-opacity="0"/>
<path d="M521.927,78.188L521.823,91.313C521.826,92.607 521.571,93.889 521.073,95.083C520.582,96.276 519.86,97.359 518.948,98.271C518.036,99.183 516.953,99.905 515.76,100.396C514.566,100.894 513.284,101.149 511.989,101.146L507.135,101.146L502.969,105.313C502.711,105.583 502.398,105.796 502.052,105.938C501.692,106.102 501.302,106.187 500.906,106.188C500.513,106.187 500.124,106.109 499.76,105.958C499.397,105.797 499.071,105.563 498.802,105.271L494.74,101.229L489.885,101.229C488.595,101.229 487.317,100.975 486.125,100.48C484.934,99.986 483.851,99.261 482.94,98.348C482.028,97.434 481.306,96.35 480.814,95.157C480.322,93.965 480.07,92.686 480.073,91.396L480.073,77.646C480.07,76.354 480.323,75.074 480.816,73.88C481.31,72.686 482.034,71.601 482.948,70.688C484.797,68.861 487.286,67.829 489.885,67.813L512.094,67.813C513.386,67.81 514.666,68.062 515.86,68.555C517.054,69.049 518.139,69.773 519.053,70.687C519.967,71.6 520.691,72.685 521.184,73.88C521.677,75.074 521.93,76.354 521.927,77.646L521.927,78.188Z" fill="#000000"/>
</svg>
