<svg width="750" height="168" viewBox="0 0 750 168" fill="none" xmlns="http://www.w3.org/2000/svg" xmlns:xlink="http://www.w3.org/1999/xlink">
<rect  x="0" y="16" width="750" height="152" rx="32" fill="#FFFFFF"/>
<path d="M28,16C50.076,16 54.802,36.125 60.318,59.611C68.044,92.509 77.319,132 138,132C198.681,132 207.956,92.509 215.682,59.611C221.198,36.125 225.924,16 248,16L28,16Z" clip-rule="evenodd" fill-rule="evenodd" fill="#FFFFFF"/>
<circle cx="138" cy="56" r="56" fill="#11477E"/>
<path d="M135.033,30.846C135.555,30.304 136.262,30 137,30C137.738,30 138.445,30.304 138.967,30.846L155.656,48.179L161.219,53.957C161.726,54.502 162.006,55.232 162,55.989C161.994,56.747 161.701,57.471 161.185,58.007C160.67,58.543 159.972,58.846 159.243,58.853C158.513,58.86 157.811,58.568 157.286,58.042L156.471,57.196L156.471,76.222C156.471,77.755 155.885,79.224 154.842,80.308C153.798,81.391 152.383,82 150.908,82L142.563,82C141.825,82 141.118,81.696 140.596,81.154C140.075,80.612 139.782,79.877 139.782,79.111L139.782,70.444L134.218,70.444L134.218,79.111C134.218,79.877 133.925,80.612 133.404,81.154C132.882,81.696 132.175,82 131.437,82L123.092,82C121.617,82 120.202,81.391 119.158,80.308C118.115,79.224 117.529,77.755 117.529,76.222L117.529,57.196L116.714,58.042C116.189,58.568 115.487,58.86 114.757,58.853C114.028,58.846 113.33,58.543 112.815,58.007C112.299,57.471 112.006,56.747 112,55.989C111.994,55.232 112.274,54.502 112.781,53.957L118.344,48.179L135.033,30.846Z" clip-rule="evenodd" fill-rule="evenodd" fill="#FFFFFF"/>
<rect  x="376" y="52" width="156" height="80" fill="#FFFFFF" fill-opacity="0"/>
<path d="M475.927,82.188L475.823,95.313C475.826,96.607 475.571,97.889 475.073,99.083C474.582,100.276 473.86,101.359 472.948,102.271C472.036,103.183 470.953,103.905 469.761,104.396C468.566,104.894 467.284,105.149 465.99,105.146L461.136,105.146L456.969,109.313C456.711,109.583 456.399,109.796 456.052,109.938C455.693,110.102 455.302,110.187 454.907,110.188C454.513,110.187 454.124,110.109 453.761,109.958C453.398,109.797 453.071,109.563 452.802,109.271L448.74,105.229L443.886,105.229C442.595,105.229 441.318,104.975 440.126,104.48C438.934,103.986 437.851,103.261 436.94,102.348C436.028,101.434 435.306,100.35 434.814,99.157C434.322,97.965 434.071,96.686 434.073,95.396L434.073,81.646C434.071,80.354 434.323,79.074 434.817,77.88C435.31,76.686 436.035,75.601 436.948,74.688C438.797,72.861 441.287,71.829 443.886,71.813L466.094,71.813C467.386,71.81 468.666,72.062 469.86,72.555C471.055,73.049 472.14,73.773 473.053,74.687C473.967,75.6 474.691,76.685 475.184,77.88C475.678,79.074 475.93,80.354 475.927,81.646L475.927,82.188Z" fill="#000000"/>
<rect  x="534" y="52" width="156" height="80" fill="#FFFFFF" fill-opacity="0"/>
<path d="M613.024,85.072C611.564,85.072 610.197,85.638 609.162,86.673C608.131,87.709 607.56,89.076 607.56,90.536C607.56,91.996 608.131,93.363 609.162,94.398C610.197,95.428 611.564,96 613.024,96C614.484,96 615.851,95.428 616.886,94.398C617.917,93.363 618.488,91.996 618.488,90.536C618.488,89.076 617.917,87.709 616.886,86.673C616.381,86.164 615.779,85.76 615.116,85.485C614.453,85.21 613.742,85.07 613.024,85.072ZM633.156,96.571L629.962,93.841C630.114,92.914 630.192,91.966 630.192,91.024C630.192,90.082 630.114,89.129 629.962,88.207L633.156,85.477C633.397,85.271 633.57,84.995 633.651,84.688C633.732,84.381 633.718,84.057 633.61,83.758L633.566,83.631C632.687,81.174 631.37,78.896 629.679,76.908L629.591,76.805C629.386,76.564 629.112,76.39 628.806,76.307C628.5,76.225 628.177,76.236 627.878,76.341L623.913,77.752C622.448,76.551 620.817,75.604 619.049,74.945L618.283,70.799C618.225,70.487 618.073,70.2 617.848,69.976C617.623,69.751 617.336,69.601 617.023,69.544L616.891,69.52C614.352,69.061 611.676,69.061 609.137,69.52L609.005,69.544C608.693,69.601 608.405,69.751 608.18,69.976C607.955,70.2 607.803,70.487 607.746,70.799L606.974,74.964C605.223,75.629 603.592,76.574 602.145,77.762L598.151,76.341C597.852,76.236 597.528,76.223 597.222,76.306C596.916,76.389 596.642,76.563 596.437,76.805L596.349,76.908C594.661,78.898 593.345,81.175 592.462,83.631L592.419,83.758C592.199,84.369 592.379,85.052 592.873,85.477L596.105,88.236C595.954,89.154 595.88,90.091 595.88,91.019C595.88,91.957 595.954,92.894 596.105,93.802L592.882,96.561C592.641,96.768 592.468,97.043 592.387,97.35C592.306,97.657 592.321,97.981 592.428,98.28L592.472,98.407C593.356,100.863 594.66,103.133 596.359,105.13L596.447,105.233C596.652,105.474 596.926,105.648 597.232,105.731C597.538,105.814 597.862,105.802 598.161,105.697L602.155,104.276C603.61,105.472 605.231,106.419 606.984,107.074L607.755,111.239C607.813,111.551 607.965,111.838 608.19,112.063C608.415,112.287 608.703,112.437 609.015,112.494L609.147,112.518C611.711,112.98 614.337,112.98 616.901,112.518L617.033,112.494C617.345,112.437 617.633,112.287 617.858,112.063C618.083,111.838 618.235,111.551 618.293,111.239L619.059,107.093C620.827,106.429 622.458,105.487 623.922,104.286L627.887,105.697C628.186,105.803 628.51,105.815 628.817,105.732C629.123,105.649 629.396,105.475 629.601,105.233L629.689,105.13C631.388,103.124 632.692,100.863 633.576,98.407L633.62,98.28C633.83,97.674 633.649,96.996 633.156,96.571ZM613.024,99.12C608.283,99.12 604.44,95.277 604.44,90.536C604.44,85.794 608.283,81.952 613.024,81.952C617.765,81.952 621.608,85.794 621.608,90.536C621.608,95.277 617.765,99.12 613.024,99.12Z" fill="#000000"/>
</svg>
