<svg width="222" height="50" viewBox="0 0 222 50" fill="none" xmlns="http://www.w3.org/2000/svg" xmlns:xlink="http://www.w3.org/1999/xlink">
<rect  x="174" y="0" width="46" height="46" stroke="#F6F6F6" stroke-width="1" stroke-miterlimit="3.999327"/>
<path d="M197.616,29.54L190.186,20.624C189.991,20.39 189.867,20.106 189.829,19.804C189.79,19.503 189.838,19.196 189.967,18.921C190.096,18.646 190.301,18.413 190.557,18.25C190.814,18.086 191.112,18 191.416,18L204.584,18C204.888,18 205.186,18.087 205.442,18.25C205.698,18.414 205.903,18.647 206.032,18.922C206.161,19.197 206.208,19.503 206.169,19.805C206.131,20.106 206.007,20.39 205.812,20.624L198.384,29.54C198.337,29.596 198.278,29.642 198.212,29.673C198.146,29.704 198.073,29.72 198,29.72C197.927,29.72 197.854,29.704 197.788,29.673C197.722,29.642 197.663,29.596 197.616,29.54Z" fill="#000000"/>
<rect  x="0" y="2" width="46" height="46" stroke="#F6F6F6" stroke-width="1" stroke-miterlimit="3.999327"/>
<path d="M24,6C20.287,6 16.726,7.475 14.1,10.101C11.475,12.726 10,16.287 10,20L10,27.056C10,27.366 9.928,27.672 9.79,27.95L6.356,34.816C6.188,35.151 6.109,35.524 6.126,35.899C6.143,36.274 6.255,36.638 6.452,36.957C6.649,37.276 6.925,37.539 7.252,37.722C7.58,37.904 7.949,38 8.324,38L39.676,38C40.051,38 40.42,37.904 40.747,37.722C41.075,37.539 41.35,37.276 41.548,36.957C41.745,36.638 41.857,36.274 41.874,35.899C41.891,35.524 41.812,35.151 41.644,34.816L38.212,27.95C38.073,27.672 38,27.366 38,27.056L38,20C38,16.287 36.525,12.726 33.899,10.101C31.274,7.475 27.713,6 24,6ZM24,44C22.759,44.001 21.548,43.616 20.534,42.9C19.52,42.183 18.754,41.17 18.34,40L29.66,40C29.246,41.17 28.48,42.183 27.466,42.9C26.452,43.616 25.241,44.001 24,44Z" fill="#000000"/>
<path d="M42,9C42,11.761 39.314,14 36,14C32.686,14 30,11.761 30,9C30,6.239 32.686,4 36,4C39.314,4 42,6.239 42,9Z" fill="#E91515"/>
<path d="M122.09,17.54L121.99,30.14C121.993,31.383 121.748,32.613 121.27,33.76C120.799,34.905 120.106,35.945 119.23,36.82C118.355,37.695 117.315,38.389 116.17,38.86C115.023,39.338 113.793,39.583 112.55,39.58L107.89,39.58L103.89,43.58C103.643,43.84 103.343,44.044 103.01,44.18C102.665,44.338 102.29,44.419 101.91,44.42C101.533,44.419 101.159,44.345 100.81,44.2C100.461,44.045 100.148,43.821 99.89,43.54L95.99,39.66L91.33,39.66C90.091,39.66 88.865,39.416 87.721,38.941C86.576,38.466 85.537,37.771 84.662,36.894C83.787,36.017 83.094,34.976 82.621,33.831C82.149,32.686 81.908,31.459 81.91,30.22L81.91,17.02C81.908,15.78 82.15,14.551 82.624,13.405C83.098,12.259 83.793,11.217 84.67,10.34C86.445,8.586 88.835,7.596 91.33,7.58L112.65,7.58C113.891,7.577 115.119,7.82 116.266,8.293C117.412,8.767 118.454,9.462 119.331,10.339C120.208,11.216 120.904,12.258 121.377,13.404C121.85,14.551 122.093,15.78 122.09,17.02L122.09,17.54Z" fill="#000000"/>
</svg>
