<svg width="48" height="26" viewBox="0 0 48 26" fill="none" xmlns="http://www.w3.org/2000/svg" xmlns:xlink="http://www.w3.org/1999/xlink">
<path d="M25.825,8.637C25.825,8.388 25.726,8.15 25.551,7.974C25.375,7.798 25.136,7.699 24.888,7.699C24.639,7.699 24.401,7.798 24.225,7.974C24.049,8.15 23.95,8.388 23.95,8.637L23.95,13.949L18.638,13.949C18.389,13.949 18.151,14.048 17.975,14.224C17.799,14.4 17.7,14.638 17.7,14.887C17.7,15.135 17.799,15.374 17.975,15.55C18.151,15.725 18.389,15.824 18.638,15.824L23.95,15.824L23.95,21.137C23.95,21.385 24.049,21.624 24.225,21.8C24.401,21.975 24.639,22.074 24.888,22.074C25.136,22.074 25.375,21.975 25.551,21.8C25.726,21.624 25.825,21.385 25.825,21.137L25.825,15.824L31.138,15.824C31.386,15.824 31.625,15.725 31.801,15.55C31.976,15.374 32.075,15.135 32.075,14.887C32.075,14.638 31.976,14.4 31.801,14.224C31.625,14.048 31.386,13.949 31.138,13.949L25.825,13.949L25.825,8.637Z" fill="#FFFFFF"/>
<path d="M48,7.63C48,11.747 37.255,15.084 24,15.084C10.745,15.084 0,11.747 0,7.63C0,3.513 10.745,0.176 24,0.176C37.255,0.176 48,3.513 48,7.63Z" fill="#BABABC"/>
</svg>
