<svg width="2206" height="2086" viewBox="0 0 2206 2086" fill="none" xmlns="http://www.w3.org/2000/svg" xmlns:xlink="http://www.w3.org/1999/xlink">
<mask id="mask_0_123_1069" style="mask-type:alpha" maskUnits="userSpaceOnUse" x="930" y="0" width="241" height="234">
<path d="M1412,234C1412,363.234 1304.1,468 1171,468C1037.899,468 930,363.234 930,234C930,104.765 1037.899,0 1171,0C1304.1,0 1412,104.765 1412,234Z" fill="#D9D9D9"/>
</mask>
<path d="M408,2086L408,484.008C408,484.008 512.959,404.95 583.855,404.009C656.884,403.039 765.346,484.008 765.346,484.008C765.346,484.008 873.456,564.39 946.272,564.008C1018.236,563.63 1124.946,484.008 1124.946,484.008C1124.946,484.008 1234.806,403.05 1308.69,404.009C1380.44,404.939 1486.8,484.008 1486.8,484.008C1486.8,484.008 1596.664,565.366 1670.546,564.008C1741.438,562.705 1846.4,484.008 1846.4,484.008C1846.4,484.008 1953.81,404.009 2026.2,404.009C2098.59,404.009 2206,484.008 2206,484.008L2206,2086L408,2086Z" fill="url(#pf_0_123_1070)"/>
<path d="M0,2062L0,460.008C0,460.008 120.721,380.95 202.262,380.009C286.258,379.039 411.006,460.008 411.006,460.008C411.006,460.008 535.352,540.39 619.104,540.008C701.874,539.63 824.606,460.008 824.606,460.008C824.606,460.008 950.966,379.05 1035.944,380.009C1118.468,380.939 1240.8,460.008 1240.8,460.008C1240.8,460.008 1367.162,541.366 1452.138,540.008C1533.678,538.705 1654.4,460.008 1654.4,460.008C1654.4,460.008 1777.938,380.009 1861.2,380.009C1944.462,380.009 2068,460.008 2068,460.008L2068,2062L0,2062Z" fill="url(#pf_0_123_1071)"/>
<path d="M0,2062L0,460.008C0,460.008 120.721,380.95 202.262,380.009C286.258,379.039 411.006,460.008 411.006,460.008C411.006,460.008 535.352,540.39 619.104,540.008C701.874,539.63 824.606,460.008 824.606,460.008C824.606,460.008 950.966,379.05 1035.944,380.009C1118.468,380.939 1240.8,460.008 1240.8,460.008C1240.8,460.008 1367.162,541.366 1452.138,540.008C1533.678,538.705 1654.4,460.008 1654.4,460.008C1654.4,460.008 1777.938,380.009 1861.2,380.009C1944.462,380.009 2068,460.008 2068,460.008L2068,2062L0,2062Z" fill="#000000" fill-opacity="0.3"/>
<defs>
<linearGradient id="pf_0_123_1070" x1="1307" y1="404" x2="1307" y2="2086" gradientUnits="userSpaceOnUse">
<stop stop-color="#CADFF5"/>
<stop offset="1" stop-color="#1F80E4"/>
</linearGradient>
<linearGradient id="pf_0_123_1071" x1="1034" y1="380" x2="1034" y2="2062" gradientUnits="userSpaceOnUse">
<stop stop-color="#CADFF5"/>
<stop offset="1" stop-color="#1F80E4"/>
</linearGradient>
</defs>
</svg>
