<svg width="32" height="40" viewBox="0 0 32 40" fill="none" xmlns="http://www.w3.org/2000/svg" xmlns:xlink="http://www.w3.org/1999/xlink">
<path d="M16,27.999C20.412,27.999 24,24.411 24,19.999L24,7.999C24,3.565 20.43,-0.043 16.042,-0.043C15.901,-0.042 15.761,-0.025 15.624,0.007C13.57,0.107 11.634,0.992 10.215,2.479C8.796,3.967 8.003,5.943 8,7.999L8,19.999C8,24.411 11.588,27.999 16,27.999Z" fill="#FFFFFF"/>
<path d="M14,35.862L14,40L18,40L18,35.862C25.878,34.872 32,28.146 32,20L28,20C28,26.618 22.618,32 16,32C9.382,32 4,26.618 4,20L0,20C0,28.144 6.122,34.872 14,35.862Z" fill="#FFFFFF"/>
</svg>
