<svg width="32" height="40" viewBox="0 0 32 40" fill="none" xmlns="http://www.w3.org/2000/svg" xmlns:xlink="http://www.w3.org/1999/xlink">
<path d="M16,28C20.412,28 24,24.412 24,20L24,8C24,3.566 20.43,-0.042 16.042,-0.042C15.901,-0.041 15.761,-0.024 15.624,0.008C13.57,0.108 11.634,0.993 10.215,2.48C8.796,3.968 8.003,5.944 8,8L8,20C8,24.412 11.588,28 16,28Z" fill="#FFFFFF"/>
<path d="M14,35.862L14,40L18,40L18,35.862C25.878,34.872 32,28.146 32,20L28,20C28,26.618 22.618,32 16,32C9.382,32 4,26.618 4,20L0,20C0,28.144 6.122,34.872 14,35.862Z" fill="#FFFFFF"/>
</svg>
