<svg width="2376" height="1768" viewBox="0 0 2376 1768" fill="none" xmlns="http://www.w3.org/2000/svg" xmlns:xlink="http://www.w3.org/1999/xlink">
<mask id="mask_0_123_1074" style="mask-type:alpha" maskUnits="userSpaceOnUse" x="898" y="174" width="241" height="234">
<path d="M1380,408C1380,537.234 1272.1,642 1139,642C1005.899,642 898,537.234 898,408C898,278.765 1005.899,174 1139,174C1272.1,174 1380,278.765 1380,408Z" fill="#D9D9D9"/>
</mask>
<path d="M0,1768L0,166.008C0,166.008 120.721,86.95 202.262,86.009C286.258,85.039 411.006,166.008 411.006,166.008C411.006,166.008 535.352,246.39 619.104,246.008C701.874,245.63 824.606,166.008 824.606,166.008C824.606,166.008 950.966,85.05 1035.944,86.009C1118.468,86.939 1240.8,166.008 1240.8,166.008C1240.8,166.008 1367.162,247.366 1452.138,246.008C1533.678,244.705 1654.4,166.008 1654.4,166.008C1654.4,166.008 1777.938,86.009 1861.2,86.009C1944.462,86.009 2068,166.008 2068,166.008L2068,1768L0,1768Z" fill="url(#pf_0_123_1075)"/>
<path d="M0,1768L0,166.008C0,166.008 120.721,86.95 202.262,86.009C286.258,85.039 411.006,166.008 411.006,166.008C411.006,166.008 535.352,246.39 619.104,246.008C701.874,245.63 824.606,166.008 824.606,166.008C824.606,166.008 950.966,85.05 1035.944,86.009C1118.468,86.939 1240.8,166.008 1240.8,166.008C1240.8,166.008 1367.162,247.366 1452.138,246.008C1533.678,244.705 1654.4,166.008 1654.4,166.008C1654.4,166.008 1777.938,86.009 1861.2,86.009C1944.462,86.009 2068,166.008 2068,166.008L2068,1768L0,1768Z" fill="#000000" fill-opacity="0.3"/>
<path d="M578,1682L578,80.008C578,80.008 682.959,0.95 753.855,0.009C826.884,-0.961 935.346,80.008 935.346,80.008C935.346,80.008 1043.456,160.39 1116.272,160.008C1188.236,159.63 1294.946,80.008 1294.946,80.008C1294.946,80.008 1404.806,-0.95 1478.69,0.009C1550.44,0.939 1656.8,80.008 1656.8,80.008C1656.8,80.008 1766.664,161.366 1840.546,160.008C1911.438,158.705 2016.4,80.008 2016.4,80.008C2016.4,80.008 2123.81,0.009 2196.2,0.009C2268.59,0.009 2376,80.008 2376,80.008L2376,1682L578,1682Z" fill="url(#pf_0_123_1076)"/>
<defs>
<linearGradient id="pf_0_123_1075" x1="1034" y1="86" x2="1034" y2="1768" gradientUnits="userSpaceOnUse">
<stop stop-color="#CADFF5"/>
<stop offset="1" stop-color="#1F80E4"/>
</linearGradient>
<linearGradient id="pf_0_123_1076" x1="1477" y1="0" x2="1477" y2="1682" gradientUnits="userSpaceOnUse">
<stop stop-color="#CADFF5"/>
<stop offset="1" stop-color="#1F80E4"/>
</linearGradient>
</defs>
</svg>
