<svg width="54" height="54" viewBox="0 0 54 54" fill="none" xmlns="http://www.w3.org/2000/svg" xmlns:xlink="http://www.w3.org/1999/xlink">
<path d="M26,52.666C11.272,52.666 -0.667,40.727 -0.667,26C-0.667,11.272 11.272,-0.667 26,-0.667C40.727,-0.667 52.666,11.272 52.666,26C52.65,40.721 40.721,52.65 26,52.666ZM4.666,26.458C4.793,38.195 14.376,47.625 26.113,47.562C37.85,47.499 47.332,37.966 47.332,26.229C47.332,14.492 37.85,4.959 26.113,4.896C14.376,4.833 4.793,14.263 4.666,26L4.666,26.458ZM20.666,38L20.666,14L36.666,26L20.666,38Z" fill="#000000"/>
</svg>
