<svg width="54" height="54" viewBox="0 0 54 54" fill="none" xmlns="http://www.w3.org/2000/svg" xmlns:xlink="http://www.w3.org/1999/xlink">
<path d="M26,52.667C11.272,52.667 -0.667,40.728 -0.667,26.001C-0.667,11.273 11.272,-0.666 26,-0.666C40.728,-0.666 52.667,11.273 52.667,26.001C52.651,40.722 40.721,52.651 26,52.667ZM4.667,26.459C4.793,38.196 14.376,47.626 26.114,47.563C37.851,47.5 47.332,37.967 47.332,26.23C47.332,14.493 37.851,4.96 26.114,4.897C14.376,4.834 4.793,14.264 4.667,26.001L4.667,26.459ZM20.667,38.001L20.667,14.001L36.667,26.001L20.667,38.001Z" fill="#000000"/>
</svg>
