<svg width="48" height="48" viewBox="0 0 48 48" fill="none" xmlns="http://www.w3.org/2000/svg" xmlns:xlink="http://www.w3.org/1999/xlink">
<g opacity="0.5">
<path d="M24,4C12.972,4 4,12.972 4,24C4,35.028 12.972,44 24,44C35.028,44 44,35.028 44,24C44,12.972 35.028,4 24,4ZM24,40C15.178,40 8,32.822 8,24C8,15.178 15.178,8 24,8C32.822,8 40,15.178 40,24C40,32.822 32.822,40 24,40Z" fill="#1B1A57"/>
<path d="M29.658,29.656C28.927,30.384 28.063,30.967 27.114,31.372C25.404,32.093 23.497,32.199 21.719,31.67C19.94,31.141 18.401,30.01 17.364,28.472L14.048,30.71C14.913,31.986 16.013,33.086 17.29,33.95C18.589,34.828 20.049,35.442 21.586,35.756C23.179,36.081 24.822,36.081 26.416,35.756C27.953,35.442 29.412,34.828 30.712,33.95C31.338,33.526 31.936,33.034 32.484,32.488C33.028,31.946 33.524,31.346 33.952,30.71L30.636,28.472C30.348,28.897 30.021,29.293 29.658,29.656L29.658,29.656Z" fill="#1B1A57"/>
<path d="M30.986,23.972C32.635,23.972 33.972,22.635 33.972,20.986C33.972,19.337 32.635,18 30.986,18C29.337,18 28,19.337 28,20.986C28,22.635 29.337,23.972 30.986,23.972Z" fill="#1B1A57"/>
<path d="M17,24C18.657,24 20,22.657 20,21C20,19.343 18.657,18 17,18C15.343,18 14,19.343 14,21C14,22.657 15.343,24 17,24Z" fill="#1B1A57"/>
</g>
</svg>
