<svg width="786" height="54" viewBox="0 0 786 54" fill="none" xmlns="http://www.w3.org/2000/svg" xmlns:xlink="http://www.w3.org/1999/xlink">
<rect  x="0" y="0" width="784" height="52" fill="#F6F6F6" stroke="#F6F6F6" stroke-width="1" stroke-miterlimit="3.999327"/>
<rect  x="738" y="0" width="46" height="46" stroke="#F6F6F6" stroke-width="1" stroke-miterlimit="3.999327"/>
<path d="M761.615,29.54L754.185,20.624C753.99,20.39 753.866,20.106 753.828,19.804C753.789,19.503 753.837,19.196 753.966,18.921C754.095,18.646 754.3,18.413 754.556,18.25C754.813,18.086 755.111,18 755.415,18L768.583,18C768.887,18 769.185,18.087 769.441,18.25C769.697,18.414 769.902,18.647 770.031,18.922C770.16,19.197 770.207,19.503 770.168,19.805C770.13,20.106 770.006,20.39 769.811,20.624L762.383,29.54C762.336,29.596 762.277,29.642 762.211,29.673C762.145,29.704 762.072,29.72 761.999,29.72C761.926,29.72 761.853,29.704 761.787,29.673C761.721,29.642 761.662,29.596 761.615,29.54Z" fill="#000000"/>
<rect  x="564" y="2" width="46" height="46" stroke="#F6F6F6" stroke-width="1" stroke-miterlimit="3.999327"/>
<path d="M587.999,6C584.286,6 580.725,7.475 578.1,10.101C575.474,12.726 573.999,16.287 573.999,20L573.999,27.056C574,27.366 573.928,27.672 573.789,27.95L570.355,34.816C570.188,35.151 570.108,35.524 570.125,35.899C570.142,36.274 570.254,36.638 570.452,36.957C570.649,37.276 570.924,37.539 571.252,37.722C571.579,37.904 571.948,38 572.323,38L603.675,38C604.05,38 604.419,37.904 604.747,37.722C605.074,37.539 605.35,37.276 605.547,36.957C605.744,36.638 605.857,36.274 605.873,35.899C605.89,35.524 605.811,35.151 605.643,34.816L602.211,27.95C602.072,27.672 602,27.366 601.999,27.056L601.999,20C601.999,16.287 600.524,12.726 597.899,10.101C595.273,7.475 591.712,6 587.999,6ZM587.999,44C586.758,44.001 585.547,43.616 584.533,42.9C583.52,42.183 582.753,41.17 582.339,40L593.659,40C593.246,41.17 592.479,42.183 591.465,42.9C590.452,43.616 589.241,44.001 587.999,44Z" fill="#000000"/>
<path d="M606,9C606,11.761 603.314,14 600,14C596.686,14 594,11.761 594,9C594,6.239 596.686,4 600,4C603.314,4 606,6.239 606,9Z" fill="#E91515"/>
<path d="M686.09,17.54L685.99,30.14C685.993,31.383 685.748,32.613 685.27,33.76C684.799,34.905 684.106,35.945 683.23,36.82C682.355,37.695 681.315,38.389 680.17,38.86C679.023,39.338 677.793,39.583 676.55,39.58L671.89,39.58L667.89,43.58C667.643,43.84 667.343,44.044 667.01,44.18C666.665,44.338 666.29,44.419 665.91,44.42C665.533,44.419 665.159,44.345 664.81,44.2C664.461,44.045 664.148,43.821 663.89,43.54L659.99,39.66L655.33,39.66C654.091,39.66 652.865,39.416 651.721,38.941C650.576,38.466 649.537,37.771 648.662,36.894C647.787,36.017 647.094,34.976 646.621,33.831C646.149,32.686 645.908,31.459 645.91,30.22L645.91,17.02C645.908,15.78 646.15,14.551 646.624,13.405C647.098,12.259 647.793,11.217 648.67,10.34C650.445,8.586 652.835,7.596 655.33,7.58L676.65,7.58C677.891,7.577 679.119,7.82 680.266,8.293C681.412,8.767 682.454,9.462 683.331,10.339C684.208,11.216 684.904,12.258 685.377,13.404C685.85,14.551 686.093,15.78 686.09,17.02L686.09,17.54Z" fill="#000000"/>
</svg>
