<svg width="60" height="38" viewBox="0 0 60 38" fill="none" xmlns="http://www.w3.org/2000/svg" xmlns:xlink="http://www.w3.org/1999/xlink">
<path d="M0,29.25C2.355,26.115 3.75,22.222 3.75,18C3.756,13.942 2.44,9.993 0,6.75L15,6.75C17.984,6.75 20.845,7.935 22.955,10.045C25.065,12.155 26.25,15.016 26.25,18C26.25,20.984 25.065,23.845 22.955,25.955C20.845,28.065 17.984,29.25 15,29.25L0,29.25Z" transform="rotate(360 13.125 18)" fill="#BABABC"/>
<path d="M41.25,33C37.272,33 33.456,31.42 30.643,28.607C27.83,25.794 26.25,21.978 26.25,18C26.25,14.022 27.83,10.206 30.643,7.393C33.456,4.58 37.272,3 41.25,3C45.228,3 49.044,4.58 51.857,7.393C54.67,10.206 56.25,14.022 56.25,18C56.25,21.978 54.67,25.794 51.857,28.607C49.044,31.42 45.228,33 41.25,33L41.25,33ZM41.25,36.75C46.223,36.75 50.992,34.775 54.508,31.258C58.025,27.742 60,22.973 60,18C60,13.027 58.025,8.258 54.508,4.742C50.992,1.225 46.223,-0.75 41.25,-0.75C36.277,-0.75 31.508,1.225 27.992,4.742C24.475,8.258 22.5,13.027 22.5,18C22.5,22.973 24.475,27.742 27.992,31.258C31.508,34.775 36.277,36.75 41.25,36.75L41.25,36.75Z" transform="rotate(360 41.25 18)" fill="#BABABC"/>
</svg>
