<svg width="44" height="38" viewBox="0 0 44 38" fill="none" xmlns="http://www.w3.org/2000/svg" xmlns:xlink="http://www.w3.org/1999/xlink">
<path d="M3.42,3.081C2.64,2.301 2.64,1.041 3.42,0.261C4.2,-0.519 5.48,-0.519 6.26,0.261L38.88,32.921C39.66,33.701 39.66,34.961 38.88,35.741C38.1,36.521 36.84,36.521 36.06,35.741L30.62,30.301C27.94,31.341 25.04,31.941 22,31.941C12,31.941 3.46,25.721 0,16.941C1.54,13.001 4.12,9.601 7.36,7.021L3.42,3.081ZM32,16.941C32,11.421 27.52,6.941 22,6.941C20.98,6.941 20,7.141 19.06,7.421L14.72,3.081C17.02,2.341 19.46,1.941 22,1.941C32,1.941 40.54,8.161 44,16.921C42.62,20.441 40.42,23.521 37.64,25.981L31.52,19.861C31.8,18.941 32,17.961 32,16.941ZM22,26.94C16.48,26.94 12,22.46 12,16.94C12,15.4 12.36,13.94 12.98,12.66L16.12,15.8C16.06,16.16 16,16.54 16,16.94C16,20.26 18.68,22.94 22,22.94C22.4,22.94 22.76,22.88 23.14,22.8L26.28,25.94C24.98,26.58 23.54,26.94 22,26.94ZM27.94,16.28C27.64,13.48 25.44,11.3 22.66,11L27.94,16.28Z" clip-rule="evenodd" fill-rule="evenodd" fill="#000000" fill-opacity="0.54"/>
</svg>
