<svg width="44" height="38" viewBox="0 0 44 38" fill="none" xmlns="http://www.w3.org/2000/svg" xmlns:xlink="http://www.w3.org/1999/xlink">
<path d="M3.42,3.405C2.64,2.625 2.64,1.365 3.42,0.585C4.2,-0.195 5.48,-0.195 6.26,0.585L38.88,33.245C39.66,34.025 39.66,35.285 38.88,36.065C38.1,36.845 36.84,36.845 36.06,36.065L30.62,30.625C27.94,31.665 25.04,32.265 22,32.265C12,32.265 3.46,26.045 0,17.265C1.54,13.325 4.12,9.925 7.36,7.345L3.42,3.405ZM32,17.265C32,11.745 27.52,7.265 22,7.265C20.98,7.265 20,7.465 19.06,7.745L14.72,3.405C17.02,2.665 19.46,2.265 22,2.265C32,2.265 40.54,8.485 44,17.245C42.62,20.765 40.42,23.845 37.64,26.305L31.52,20.185C31.8,19.265 32,18.285 32,17.265ZM22,27.265C16.48,27.265 12,22.785 12,17.265C12,15.725 12.36,14.265 12.98,12.985L16.12,16.125C16.06,16.485 16,16.865 16,17.265C16,20.585 18.68,23.265 22,23.265C22.4,23.265 22.76,23.205 23.14,23.125L26.28,26.265C24.98,26.905 23.54,27.265 22,27.265ZM27.94,16.605C27.64,13.805 25.44,11.625 22.66,11.325L27.94,16.605Z" clip-rule="evenodd" fill-rule="evenodd" fill="#000000" fill-opacity="0.54"/>
</svg>
