<svg width="36" height="36" viewBox="0 0 36 36" fill="none" xmlns="http://www.w3.org/2000/svg" xmlns:xlink="http://www.w3.org/1999/xlink">
<path d="M20.25,1.125L0,21.375L12.375,33.75L32.625,13.5L32.625,1.125L20.25,1.125ZM25.875,10.125C25.43,10.125 24.995,9.993 24.625,9.746C24.255,9.499 23.967,9.147 23.796,8.736C23.626,8.325 23.581,7.872 23.668,7.436C23.755,7 23.969,6.599 24.284,6.284C24.599,5.969 25,5.755 25.436,5.668C25.873,5.581 26.325,5.626 26.736,5.796C27.147,5.967 27.499,6.255 27.746,6.625C27.993,6.995 28.125,7.43 28.125,7.875C28.125,8.472 27.888,9.044 27.466,9.466C27.044,9.888 26.472,10.125 25.875,10.125Z" fill="#000000"/>
<path d="M33.749,4.5L33.749,14.625L15.25,33.124L17.015,34.875L35.999,15.75L35.999,4.5L33.749,4.5Z" fill="#000000"/>
</svg>
