<svg width="50" height="50" viewBox="0 0 50 50" fill="none" xmlns="http://www.w3.org/2000/svg" xmlns:xlink="http://www.w3.org/1999/xlink">
<path d="M28.125,1.563L0,29.688L17.188,46.875L45.312,18.75L45.312,1.563L28.125,1.563ZM35.938,14.063C35.319,14.063 34.715,13.879 34.201,13.536C33.687,13.192 33.287,12.704 33.05,12.133C32.814,11.562 32.752,10.934 32.873,10.328C32.993,9.722 33.291,9.165 33.728,8.728C34.165,8.291 34.722,7.993 35.328,7.873C35.934,7.752 36.562,7.814 37.133,8.05C37.704,8.287 38.192,8.687 38.536,9.201C38.879,9.715 39.062,10.319 39.062,10.938C39.062,11.766 38.733,12.561 38.147,13.147C37.561,13.733 36.766,14.063 35.938,14.063Z" fill="#000000"/>
<path d="M46.875,6.25L46.875,20.313L21.182,46.006L23.633,48.438L50,21.875L50,6.25L46.875,6.25Z" fill="#000000"/>
</svg>
