<svg width="30" height="30" viewBox="0 0 30 30" fill="none" xmlns="http://www.w3.org/2000/svg" xmlns:xlink="http://www.w3.org/1999/xlink">
<path d="M9.687,3.125C9.687,2.876 9.589,2.638 9.413,2.462C9.237,2.286 8.999,2.188 8.75,2.188C8.501,2.188 8.263,2.286 8.087,2.462C7.911,2.638 7.812,2.876 7.812,3.125L7.812,5.1C6.012,5.244 4.832,5.596 3.965,6.465C3.096,7.333 2.744,8.514 2.599,10.313L27.401,10.313C27.256,8.513 26.904,7.333 26.035,6.465C25.167,5.596 23.986,5.244 22.187,5.099L22.187,3.125C22.187,2.876 22.089,2.638 21.913,2.462C21.737,2.286 21.499,2.188 21.25,2.188C21.001,2.188 20.763,2.286 20.587,2.462C20.411,2.638 20.312,2.876 20.312,3.125L20.312,5.016C19.481,5 18.549,5 17.5,5L12.5,5C11.451,5 10.519,5 9.687,5.016L9.687,3.125Z" fill="#000000"/>
<path d="M2.5,15C2.5,13.951 2.5,13.019 2.516,12.188L27.484,12.188C27.5,13.019 27.5,13.951 27.5,15L27.5,17.5C27.5,22.214 27.5,24.571 26.035,26.035C24.571,27.5 22.214,27.5 17.5,27.5L12.5,27.5C7.786,27.5 5.429,27.5 3.965,26.035C2.5,24.571 2.5,22.214 2.5,17.5L2.5,15ZM21.25,17.5C21.582,17.5 21.899,17.368 22.134,17.134C22.368,16.899 22.5,16.582 22.5,16.25C22.5,15.918 22.368,15.601 22.134,15.366C21.899,15.132 21.582,15 21.25,15C20.918,15 20.601,15.132 20.366,15.366C20.132,15.601 20,15.918 20,16.25C20,16.582 20.132,16.899 20.366,17.134C20.601,17.368 20.918,17.5 21.25,17.5ZM21.25,22.5C21.582,22.5 21.899,22.368 22.134,22.134C22.368,21.899 22.5,21.582 22.5,21.25C22.5,20.918 22.368,20.601 22.134,20.366C21.899,20.132 21.582,20 21.25,20C20.918,20 20.601,20.132 20.366,20.366C20.132,20.601 20,20.918 20,21.25C20,21.582 20.132,21.899 20.366,22.134C20.601,22.368 20.918,22.5 21.25,22.5ZM16.25,16.25C16.25,16.582 16.118,16.899 15.884,17.134C15.649,17.368 15.332,17.5 15,17.5C14.668,17.5 14.351,17.368 14.116,17.134C13.882,16.899 13.75,16.582 13.75,16.25C13.75,15.918 13.882,15.601 14.116,15.366C14.351,15.132 14.668,15 15,15C15.332,15 15.649,15.132 15.884,15.366C16.118,15.601 16.25,15.918 16.25,16.25ZM16.25,21.25C16.25,21.582 16.118,21.899 15.884,22.134C15.649,22.368 15.332,22.5 15,22.5C14.668,22.5 14.351,22.368 14.116,22.134C13.882,21.899 13.75,21.582 13.75,21.25C13.75,20.918 13.882,20.601 14.116,20.366C14.351,20.132 14.668,20 15,20C15.332,20 15.649,20.132 15.884,20.366C16.118,20.601 16.25,20.918 16.25,21.25ZM8.75,17.5C9.082,17.5 9.399,17.368 9.634,17.134C9.868,16.899 10,16.582 10,16.25C10,15.918 9.868,15.601 9.634,15.366C9.399,15.132 9.082,15 8.75,15C8.418,15 8.101,15.132 7.866,15.366C7.632,15.601 7.5,15.918 7.5,16.25C7.5,16.582 7.632,16.899 7.866,17.134C8.101,17.368 8.418,17.5 8.75,17.5ZM8.75,22.5C9.082,22.5 9.399,22.368 9.634,22.134C9.868,21.899 10,21.582 10,21.25C10,20.918 9.868,20.601 9.634,20.366C9.399,20.132 9.082,20 8.75,20C8.418,20 8.101,20.132 7.866,20.366C7.632,20.601 7.5,20.918 7.5,21.25C7.5,21.582 7.632,21.899 7.866,22.134C8.101,22.368 8.418,22.5 8.75,22.5Z" clip-rule="evenodd" fill-rule="evenodd" fill="#000000"/>
</svg>
