<svg width="50" height="50" viewBox="0 0 50 50" fill="none" xmlns="http://www.w3.org/2000/svg" xmlns:xlink="http://www.w3.org/1999/xlink">
<path d="M16.146,5.208C16.146,4.794 15.981,4.396 15.688,4.103C15.395,3.81 14.998,3.646 14.583,3.646C14.169,3.646 13.771,3.81 13.478,4.103C13.185,4.396 13.021,4.794 13.021,5.208L13.021,8.5C10.021,8.739 8.054,9.327 6.608,10.775C5.16,12.221 4.573,14.189 4.331,17.187L45.668,17.187C45.427,14.187 44.839,12.221 43.391,10.775C41.946,9.327 39.977,8.739 36.979,8.498L36.979,5.208C36.979,4.794 36.814,4.396 36.521,4.103C36.228,3.81 35.831,3.646 35.416,3.646C35.002,3.646 34.605,3.81 34.312,4.103C34.019,4.396 33.854,4.794 33.854,5.208L33.854,8.36C32.468,8.333 30.914,8.333 29.166,8.333L20.833,8.333C19.085,8.333 17.531,8.333 16.146,8.36L16.146,5.208Z" fill="#000000"/>
<path d="M4.167,25C4.167,23.252 4.167,21.698 4.194,20.313L45.807,20.313C45.834,21.698 45.834,23.252 45.834,25L45.834,29.167C45.834,37.023 45.834,40.952 43.392,43.392C40.952,45.833 37.023,45.833 29.167,45.833L20.834,45.833C12.977,45.833 9.048,45.833 6.609,43.392C4.167,40.952 4.167,37.023 4.167,29.167L4.167,25ZM35.417,29.167C35.97,29.167 36.499,28.947 36.89,28.556C37.281,28.166 37.5,27.636 37.5,27.083C37.5,26.531 37.281,26.001 36.89,25.61C36.499,25.219 35.97,25 35.417,25C34.864,25 34.335,25.219 33.944,25.61C33.553,26.001 33.334,26.531 33.334,27.083C33.334,27.636 33.553,28.166 33.944,28.556C34.335,28.947 34.864,29.167 35.417,29.167ZM35.417,37.5C35.97,37.5 36.499,37.281 36.89,36.89C37.281,36.499 37.5,35.969 37.5,35.417C37.5,34.864 37.281,34.334 36.89,33.944C36.499,33.553 35.97,33.333 35.417,33.333C34.864,33.333 34.335,33.553 33.944,33.944C33.553,34.334 33.334,34.864 33.334,35.417C33.334,35.969 33.553,36.499 33.944,36.89C34.335,37.281 34.864,37.5 35.417,37.5ZM27.084,27.083C27.084,27.636 26.864,28.166 26.473,28.556C26.083,28.947 25.553,29.167 25,29.167C24.448,29.167 23.918,28.947 23.527,28.556C23.136,28.166 22.917,27.636 22.917,27.083C22.917,26.531 23.136,26.001 23.527,25.61C23.918,25.219 24.448,25 25,25C25.553,25 26.083,25.219 26.473,25.61C26.864,26.001 27.084,26.531 27.084,27.083ZM27.084,35.417C27.084,35.969 26.864,36.499 26.473,36.89C26.083,37.281 25.553,37.5 25,37.5C24.448,37.5 23.918,37.281 23.527,36.89C23.136,36.499 22.917,35.969 22.917,35.417C22.917,34.864 23.136,34.334 23.527,33.944C23.918,33.553 24.448,33.333 25,33.333C25.553,33.333 26.083,33.553 26.473,33.944C26.864,34.334 27.084,34.864 27.084,35.417ZM14.584,29.167C15.136,29.167 15.666,28.947 16.057,28.556C16.447,28.166 16.667,27.636 16.667,27.083C16.667,26.531 16.447,26.001 16.057,25.61C15.666,25.219 15.136,25 14.584,25C14.031,25 13.501,25.219 13.111,25.61C12.72,26.001 12.5,26.531 12.5,27.083C12.5,27.636 12.72,28.166 13.111,28.556C13.501,28.947 14.031,29.167 14.584,29.167ZM14.584,37.5C15.136,37.5 15.666,37.281 16.057,36.89C16.447,36.499 16.667,35.969 16.667,35.417C16.667,34.864 16.447,34.334 16.057,33.944C15.666,33.553 15.136,33.333 14.584,33.333C14.031,33.333 13.501,33.553 13.111,33.944C12.72,34.334 12.5,34.864 12.5,35.417C12.5,35.969 12.72,36.499 13.111,36.89C13.501,37.281 14.031,37.5 14.584,37.5Z" clip-rule="evenodd" fill-rule="evenodd" fill="#000000"/>
</svg>
