<svg width="92" height="114" viewBox="0 0 92 114" fill="none" xmlns="http://www.w3.org/2000/svg" xmlns:xlink="http://www.w3.org/1999/xlink">
<path d="M58.29,101.615C57.851,101.176 57.243,100.924 56.623,100.924C56.002,100.924 55.394,101.176 54.955,101.615C54.517,102.054 54.264,102.662 54.264,103.282C54.264,103.903 54.516,104.511 54.955,104.95C55.394,105.388 56.002,105.641 56.623,105.641C57.243,105.641 57.851,105.388 58.29,104.95C58.729,104.511 58.981,103.903 58.981,103.282C58.981,102.662 58.729,102.054 58.29,101.615Z" transform="rotate(360 56.623 103.282)" fill="#000000"/>
<path d="M38.891,5.641L25.298,5.641C24.102,5.641 23.132,6.697 23.132,7.999C23.132,9.302 24.102,10.358 25.298,10.358L38.891,10.358C40.087,10.358 41.057,9.302 41.057,7.999C41.057,6.697 40.087,5.641 38.891,5.641Z" transform="rotate(360 32.094 7.999)" fill="#000000"/>
<path d="M87.555,65.728L87.555,82.198L54.235,82.198L61.303,72.207C62.989,69.823 63.206,66.73 61.869,64.134C60.532,61.537 57.892,59.924 54.979,59.924C53.321,59.924 51.676,60.471 50.346,61.465L36.309,71.955C35.799,72.337 35.166,72.547 34.529,72.547C32.886,72.547 31.55,71.206 31.55,69.558L31.55,66.814L31.55,15.991L87.555,15.991L87.555,65.728ZM92,7.098L92,65.728L92,93.088C92,97.533 88.395,101.149 83.965,101.149L47.87,101.149L47.87,110.959C47.87,112.19 46.875,113.188 45.647,113.188C44.42,113.188 43.425,112.19 43.425,110.959L43.425,94.683L3.992,94.683L3.992,110.959C3.992,112.19 2.997,113.188 1.77,113.188C0.542,113.188 -0.453,112.19 -0.453,110.959L-0.453,94.683C-0.453,92.225 1.541,90.224 3.992,90.224L5.989,90.224L5.989,66.91C5.989,58.26 7.99,49.58 11.776,41.808C15.401,34.366 20.69,27.711 27.105,22.493L27.105,7.098C27.105,2.653 30.71,-0.963 35.14,-0.963L83.965,-0.963C88.395,-0.963 92,2.653 92,7.098ZM87.555,93.088L87.555,86.657L51.108,86.657C51.09,86.657 51.072,86.656 51.055,86.654C51.043,86.654 51.031,86.653 51.019,86.652C49.595,88.398 47.922,89.896 46.071,91.109C47.16,91.922 47.87,93.219 47.87,94.683L47.87,96.69L83.965,96.69C85.945,96.69 87.555,95.074 87.555,93.088ZM34.529,77.006C36.117,77.006 37.692,76.482 38.965,75.531L53.001,65.041C53.569,64.617 54.271,64.383 54.979,64.383C56.241,64.383 57.34,65.055 57.919,66.18C58.499,67.305 58.408,68.593 57.678,69.626L48.299,82.883C45.048,87.48 39.752,90.224 34.134,90.224L10.434,90.224L10.434,66.91C10.434,52.127 16.457,38.333 27.105,28.39L27.105,66.814L27.105,69.558C27.105,73.665 30.436,77.006 34.529,77.006ZM31.55,7.098L31.55,11.532L87.555,11.532L87.555,7.098C87.555,5.112 85.944,3.496 83.965,3.496L35.14,3.496C33.16,3.496 31.55,5.112 31.55,7.098Z" clip-rule="evenodd" fill-rule="evenodd" transform="rotate(360 45.774 56.113)" fill="#000000"/>
<path d="M18.747,36.498C19.451,36.498 20.022,37.087 20.022,37.813L20.022,39.138C20.024,42.593 21.331,45.841 23.701,48.283C26.07,50.723 29.218,52.066 32.566,52.066L32.573,52.066C39.49,52.062 45.114,46.256 45.11,39.123C45.108,35.668 43.801,32.42 41.431,29.978C39.062,27.538 35.914,26.195 32.566,26.195L32.559,26.195C30.791,26.196 29.076,26.573 27.461,27.315C26.817,27.61 26.063,27.312 25.777,26.649C25.49,25.985 25.779,25.208 26.423,24.912C28.366,24.019 30.43,23.566 32.557,23.564L32.566,23.564C36.595,23.564 40.383,25.181 43.233,28.117C46.086,31.056 47.658,34.964 47.66,39.122C47.663,43.279 46.095,47.189 43.246,50.131C40.396,53.073 36.607,54.694 32.575,54.696L32.566,54.696C28.538,54.696 24.749,53.08 21.899,50.144C19.046,47.205 17.474,43.297 17.472,39.139L17.472,37.813C17.472,37.087 18.043,36.498 18.747,36.498Z" transform="rotate(360 32.566 39.13)" fill="#000000" stroke="#000000" stroke-width="1.6" stroke-miterlimit="3.999327"/>
<path d="M28.235,22.998C28.75,22.495 29.585,22.495 30.1,22.998L44.885,37.437L48.24,34.161C48.754,33.658 49.589,33.658 50.104,34.161C50.619,34.664 50.619,35.479 50.104,35.982L45.818,40.168C45.56,40.42 45.223,40.546 44.885,40.546C44.548,40.546 44.21,40.42 43.953,40.168L28.235,24.819C27.72,24.316 27.72,23.501 28.235,22.998Z" transform="rotate(360 39.17 31.583)" fill="#000000" stroke="#000000" stroke-width="1.6" stroke-miterlimit="3.999327"/>
<path d="M33.762,90.295C33.323,89.856 32.715,89.604 32.094,89.604C31.474,89.604 30.866,89.856 30.427,90.295C29.988,90.733 29.736,91.342 29.736,91.962C29.736,92.585 29.988,93.191 30.427,93.629C30.866,94.071 31.474,94.32 32.094,94.32C32.715,94.32 33.323,94.07 33.762,93.629C34.2,93.191 34.453,92.585 34.453,91.962C34.453,91.342 34.201,90.733 33.762,90.295Z" transform="rotate(360 32.094 91.962)" fill="#000000"/>
</svg>
