<svg width="38" height="10" viewBox="0 0 38 10" fill="none" xmlns="http://www.w3.org/2000/svg" xmlns:xlink="http://www.w3.org/1999/xlink">
<path d="M4.417,0.833C2.125,0.833 0.25,2.708 0.25,5C0.25,7.291 2.125,9.166 4.417,9.166C6.708,9.166 8.583,7.291 8.583,5C8.583,2.708 6.708,0.833 4.417,0.833ZM33.583,0.833C31.292,0.833 29.417,2.708 29.417,5C29.417,7.291 31.292,9.166 33.583,9.166C35.875,9.166 37.75,7.291 37.75,5C37.75,2.708 35.875,0.833 33.583,0.833ZM19,0.833C16.708,0.833 14.833,2.708 14.833,5C14.833,7.291 16.708,9.166 19,9.166C21.292,9.166 23.167,7.291 23.167,5C23.167,2.708 21.292,0.833 19,0.833Z" fill="#000000"/>
</svg>
