<svg width="38" height="50" viewBox="0 0 38 50" fill="none" xmlns="http://www.w3.org/2000/svg" xmlns:xlink="http://www.w3.org/1999/xlink">
<path d="M35.133,12.5L30.963,12.5L30.963,14.58C30.963,16.875 29.098,18.75 26.793,18.75C24.498,18.75 22.623,16.885 22.623,14.58L22.623,12.5L14.293,12.5L14.293,14.58C14.293,16.875 12.428,18.75 10.123,18.75C7.828,18.75 5.953,16.885 5.953,14.58L5.953,12.5L1.803,12.5C1.803,33.33 -0.277,50 -0.277,50L37.223,50C37.213,50 35.133,33.33 35.133,12.5ZM10.133,16.67C11.285,16.67 12.213,15.742 12.213,14.59L12.213,10.42C12.213,6.963 15.006,4.17 18.463,4.17C21.92,4.17 24.713,6.963 24.713,10.42L24.713,14.59C24.713,15.742 25.641,16.67 26.793,16.67C27.945,16.67 28.873,15.742 28.873,14.59L28.873,10.42C28.883,4.668 24.215,0 18.463,0C12.711,0 8.043,4.668 8.043,10.42L8.043,14.59C8.053,15.732 8.98,16.67 10.133,16.67Z" fill="#FFFFFF"/>
</svg>
