<svg width="18" height="12" viewBox="0 0 18 12" fill="none" xmlns="http://www.w3.org/2000/svg" xmlns:xlink="http://www.w3.org/1999/xlink">
<path d="M7.615,11.54L0.185,2.624C-0.01,2.39 -0.134,2.106 -0.172,1.804C-0.211,1.503 -0.163,1.196 -0.034,0.921C0.095,0.646 0.3,0.413 0.556,0.25C0.813,0.086 1.111,0 1.415,0L14.583,0C14.887,0 15.185,0.087 15.441,0.25C15.697,0.414 15.902,0.647 16.031,0.922C16.16,1.197 16.207,1.503 16.168,1.805C16.13,2.106 16.006,2.39 15.811,2.624L8.383,11.54C8.336,11.596 8.277,11.642 8.211,11.673C8.145,11.704 8.072,11.72 7.999,11.72C7.926,11.72 7.853,11.704 7.787,11.673C7.721,11.642 7.662,11.596 7.615,11.54Z" fill="#000000"/>
</svg>
