<svg width="16" height="28" viewBox="0 0 16 28" fill="none" xmlns="http://www.w3.org/2000/svg" xmlns:xlink="http://www.w3.org/1999/xlink">
<path d="M15.362,3.415C16.144,2.634 16.144,1.368 15.364,0.586C14.583,-0.195 13.317,-0.196 12.535,0.585L15.362,3.415ZM2,13.938L0.586,12.523C0.211,12.898 0,13.407 0,13.938C0,14.469 0.211,14.978 0.586,15.353L2,13.938ZM12.535,27.291C13.317,28.072 14.583,28.071 15.364,27.29C16.144,26.508 16.144,25.242 15.362,24.461L12.535,27.291ZM12.535,0.585L0.586,12.523L3.414,15.353L15.362,3.415L12.535,0.585ZM0.586,15.353L12.535,27.291L15.362,24.461L3.414,12.523L0.586,15.353Z" fill="#1E3354"/>
</svg>
