<svg width="46" height="32" viewBox="0 0 46 32" fill="none" xmlns="http://www.w3.org/2000/svg" xmlns:xlink="http://www.w3.org/1999/xlink">
<path d="M7.44,13.699C9.851,13.699 11.81,11.72 11.81,9.287C11.81,6.853 9.851,4.874 7.44,4.874C5.03,4.874 3.07,6.853 3.07,9.287C3.07,11.72 5.03,13.699 7.44,13.699ZM38.033,13.699C40.443,13.699 42.403,11.72 42.403,9.287C42.403,6.853 40.443,4.874 38.033,4.874C35.622,4.874 33.662,6.853 33.662,9.287C33.662,11.72 35.622,13.699 38.033,13.699ZM40.218,15.905L35.847,15.905C34.646,15.905 33.56,16.395 32.768,17.188C35.52,18.711 37.473,21.462 37.896,24.73L42.403,24.73C43.612,24.73 44.588,23.744 44.588,22.524L44.588,20.318C44.588,17.884 42.628,15.905 40.218,15.905ZM22.736,15.905C26.963,15.905 30.384,12.451 30.384,8.184C30.384,3.916 26.963,0.462 22.736,0.462C18.509,0.462 15.088,3.916 15.088,8.184C15.088,12.451 18.509,15.905 22.736,15.905ZM27.981,18.111L27.414,18.111C25.994,18.801 24.416,19.215 22.736,19.215C21.057,19.215 19.486,18.801 18.059,18.111L17.492,18.111C13.149,18.111 9.625,21.669 9.625,26.054L9.625,28.039C9.625,29.866 11.093,31.349 12.903,31.349L32.57,31.349C34.379,31.349 35.847,29.866 35.847,28.039L35.847,26.054C35.847,21.669 32.324,18.111 27.981,18.111ZM12.705,17.188C11.913,16.395 10.827,15.905 9.625,15.905L5.255,15.905C2.844,15.905 0.885,17.884 0.885,20.318L0.885,22.524C0.885,23.744 1.861,24.73 3.07,24.73L7.57,24.73C8,21.462 9.953,18.711 12.705,17.188Z" fill="#000000"/>
</svg>
