<svg width="42" height="42" viewBox="0 0 42 42" fill="none" xmlns="http://www.w3.org/2000/svg" xmlns:xlink="http://www.w3.org/1999/xlink">
<path d="M32.62,5.234L28.453,3.046C24.795,1.127 22.966,0.167 20.999,0.167C19.033,0.167 17.204,1.125 13.545,3.046L12.876,3.398L31.466,14.021L39.833,9.834C38.487,8.309 36.316,7.169 32.62,5.229M41.308,12.592L32.978,16.759L32.978,23.084C32.978,23.498 32.814,23.895 32.521,24.189C32.228,24.482 31.83,24.646 31.416,24.646C31.002,24.646 30.604,24.482 30.311,24.189C30.018,23.895 29.853,23.498 29.853,23.084L29.853,18.321L22.562,21.967L22.562,41.634C24.058,41.261 25.76,40.369 28.453,38.954L32.62,36.767C37.101,34.415 39.343,33.24 40.589,31.125C41.833,29.013 41.833,26.382 41.833,21.125L41.833,20.882C41.833,16.938 41.833,14.471 41.308,12.592ZM19.437,41.634L19.437,21.967L0.691,12.592C0.166,14.471 0.166,16.938 0.166,20.877L0.166,21.121C0.166,26.382 0.166,29.013 1.41,31.125C2.656,33.24 4.897,34.417 9.379,36.769L13.545,38.954C16.239,40.369 17.941,41.261 19.437,41.634ZM2.166,9.836L20.999,19.252L28.106,15.7L9.593,5.121L9.379,5.234C5.685,7.171 3.512,8.311 2.166,9.838Z" fill="#EC0C0C"/>
</svg>
