<svg width="50" height="52" viewBox="0 0 50 52" fill="none" xmlns="http://www.w3.org/2000/svg" xmlns:xlink="http://www.w3.org/1999/xlink">
<path d="M32.893,0.002C29.537,0.002 26.409,1.362 23.831,3.938C20.903,6.866 19.563,10.466 19.955,14.314C20.249,17.17 21.553,20.05 23.643,22.626L9.143,37.126L6.517,34.5C5.237,33.214 4.175,34.28 2.893,35.564L1.643,36.876C0.359,38.154 -0.701,39.156 0.581,40.438L3.203,43.066L1.143,45.126C0.838,45.429 0.595,45.789 0.43,46.186C0.265,46.583 0.18,47.009 0.18,47.439C0.18,47.869 0.265,48.295 0.43,48.692C0.595,49.089 0.838,49.449 1.143,49.752C2.423,51.03 4.485,51.03 5.769,49.752L28.519,27.002C30.983,28.546 33.659,29.376 36.267,29.376C39.621,29.376 42.755,28.016 45.331,25.438C48.261,22.512 49.599,18.912 49.205,15.064C48.853,11.602 47.015,8.118 44.081,5.188C40.757,1.86 36.787,0.002 32.893,0.002ZM33.019,4.126C35.805,4.126 38.699,5.552 41.205,8.064C43.433,10.284 44.823,12.868 45.081,15.376C45.347,17.984 44.429,20.468 42.393,22.502C40.569,24.322 38.443,25.25 36.143,25.25C33.355,25.25 30.467,23.822 27.955,21.314C25.729,19.088 24.339,16.51 24.081,14.002C23.817,11.394 24.731,8.912 26.769,6.876C28.593,5.056 30.721,4.126 33.019,4.126Z" fill="#000000"/>
</svg>
