<svg width="36" height="36" viewBox="0 0 36 36" fill="none" xmlns="http://www.w3.org/2000/svg" xmlns:xlink="http://www.w3.org/1999/xlink">
<path d="M32.407,24.52L27.327,23.94C26.73,23.869 26.125,23.936 25.556,24.133C24.988,24.33 24.472,24.654 24.047,25.08L20.367,28.76C14.69,25.872 10.075,21.257 7.187,15.58L10.887,11.88C11.747,11.02 12.167,9.82 12.027,8.6L11.447,3.56C11.334,2.584 10.866,1.684 10.132,1.031C9.398,0.378 8.45,0.018 7.467,0.02L4.007,0.02C1.747,0.02 -0.133,1.9 0.007,4.16C1.067,21.24 14.727,34.88 31.787,35.94C34.047,36.08 35.927,34.2 35.927,31.94L35.927,28.48C35.947,26.46 34.427,24.76 32.407,24.52Z" fill="#000000"/>
</svg>
