<svg width="20" height="16" viewBox="0 0 20 16" fill="none" xmlns="http://www.w3.org/2000/svg" xmlns:xlink="http://www.w3.org/1999/xlink">
<path d="M2.701,5.685C2.007,4.825 0.748,4.691 -0.112,5.385C-0.971,6.079 -1.106,7.338 -0.412,8.197L2.701,5.685ZM6.842,14L5.286,15.256C5.654,15.712 6.204,15.984 6.79,15.999C7.376,16.015 7.94,15.772 8.331,15.335L6.842,14ZM19.094,3.335C19.831,2.513 19.762,1.249 18.94,0.511C18.118,-0.226 16.853,-0.158 16.116,0.665L19.094,3.335ZM-0.412,8.197L5.286,15.256L8.399,12.744L2.701,5.685L-0.412,8.197ZM8.331,15.335L19.094,3.335L16.116,0.665L5.353,12.665L8.331,15.335Z" fill="#FFFFFF"/>
</svg>
