<svg width="48" height="48" viewBox="0 0 48 48" fill="none" xmlns="http://www.w3.org/2000/svg" xmlns:xlink="http://www.w3.org/1999/xlink">
<path d="M23,-0.625C16.758,-0.549 10.793,1.964 6.378,6.378C1.964,10.793 -0.549,16.758 -0.625,23C-0.549,29.242 1.964,35.207 6.378,39.622C10.793,44.036 16.758,46.549 23,46.625C29.242,46.549 35.207,44.036 39.622,39.622C44.036,35.207 46.549,29.242 46.625,23C46.549,16.758 44.036,10.793 39.622,6.378C35.207,1.964 29.242,-0.549 23,-0.625ZM36.5,24.687L24.687,24.687L24.687,36.5L21.313,36.5L21.313,24.687L9.5,24.687L9.5,21.313L21.313,21.313L21.313,9.5L24.687,9.5L24.687,21.313L36.5,21.313L36.5,24.687Z" fill="#000000"/>
</svg>
