<svg width="16" height="16" viewBox="0 0 16 16" fill="none" xmlns="http://www.w3.org/2000/svg" xmlns:xlink="http://www.w3.org/1999/xlink">
<path d="M7.825,0.637C7.825,0.388 7.726,0.15 7.551,-0.026C7.375,-0.202 7.136,-0.301 6.888,-0.301C6.639,-0.301 6.401,-0.202 6.225,-0.026C6.049,0.15 5.95,0.388 5.95,0.637L5.95,5.949L0.638,5.949C0.389,5.949 0.151,6.048 -0.025,6.224C-0.201,6.4 -0.3,6.638 -0.3,6.887C-0.3,7.135 -0.201,7.374 -0.025,7.55C0.151,7.725 0.389,7.824 0.638,7.824L5.95,7.824L5.95,13.137C5.95,13.385 6.049,13.624 6.225,13.8C6.401,13.975 6.639,14.074 6.888,14.074C7.136,14.074 7.375,13.975 7.551,13.8C7.726,13.624 7.825,13.385 7.825,13.137L7.825,7.824L13.138,7.824C13.386,7.824 13.625,7.725 13.801,7.55C13.976,7.374 14.075,7.135 14.075,6.887C14.075,6.638 13.976,6.4 13.801,6.224C13.625,6.048 13.386,5.949 13.138,5.949L7.825,5.949L7.825,0.637Z" fill="#FFFFFF"/>
</svg>
