<svg width="24" height="28" viewBox="0 0 24 28" fill="none" xmlns="http://www.w3.org/2000/svg" xmlns:xlink="http://www.w3.org/1999/xlink">
<path d="M0.55,0.284C-0.435,1.269 -0.435,2.852 -0.435,6.022L-0.435,21.151C-0.435,24.321 -0.435,25.904 0.55,26.889C1.535,27.874 3.119,27.874 6.289,27.874L16.374,27.874C19.545,27.874 21.128,27.874 22.113,26.889C23.098,25.904 23.098,24.321 23.098,21.151L23.098,6.022C23.098,2.852 23.098,1.269 22.113,0.284C21.128,-0.701 19.545,-0.701 16.374,-0.701L6.289,-0.701C3.119,-0.701 1.535,-0.701 0.55,0.284ZM6.289,6.022C5.843,6.022 5.416,6.2 5.1,6.515C4.785,6.83 4.608,7.258 4.608,7.703C4.608,8.149 4.785,8.577 5.1,8.892C5.416,9.207 5.843,9.384 6.289,9.384L16.374,9.384C16.82,9.384 17.248,9.207 17.563,8.892C17.878,8.577 18.055,8.149 18.055,7.703C18.055,7.258 17.878,6.83 17.563,6.515C17.248,6.2 16.82,6.022 16.374,6.022L6.289,6.022ZM6.289,12.746C5.843,12.746 5.416,12.923 5.1,13.238C4.785,13.554 4.608,13.981 4.608,14.427C4.608,14.873 4.785,15.3 5.1,15.616C5.416,15.931 5.843,16.108 6.289,16.108L16.374,16.108C16.82,16.108 17.248,15.931 17.563,15.616C17.878,15.3 18.055,14.873 18.055,14.427C18.055,13.981 17.878,13.554 17.563,13.238C17.248,12.923 16.82,12.746 16.374,12.746L6.289,12.746ZM6.289,19.47C5.843,19.47 5.416,19.647 5.1,19.962C4.785,20.277 4.608,20.705 4.608,21.151C4.608,21.596 4.785,22.024 5.1,22.339C5.416,22.654 5.843,22.831 6.289,22.831L13.013,22.831C13.458,22.831 13.886,22.654 14.201,22.339C14.516,22.024 14.694,21.596 14.694,21.151C14.694,20.705 14.516,20.277 14.201,19.962C13.886,19.647 13.458,19.47 13.013,19.47L6.289,19.47Z" clip-rule="evenodd" fill-rule="evenodd" fill="#000000"/>
</svg>
