<svg width="40" height="40" viewBox="0 0 40 40" fill="none" xmlns="http://www.w3.org/2000/svg" xmlns:xlink="http://www.w3.org/1999/xlink">
<path d="M17,0C20.192,0 23.319,0.898 26.025,2.592C28.73,4.287 30.903,6.708 32.296,9.58C33.69,12.452 34.246,15.658 33.902,18.831C33.558,22.005 32.328,25.017 30.352,27.524L37.656,34.828C38.02,35.205 38.222,35.71 38.217,36.235C38.213,36.759 38.002,37.261 37.632,37.632C37.261,38.002 36.759,38.213 36.235,38.217C35.71,38.222 35.205,38.02 34.828,37.656L27.524,30.352C25.395,32.03 22.895,33.174 20.234,33.69C17.573,34.205 14.827,34.077 12.225,33.315C9.623,32.554 7.242,31.181 5.278,29.311C3.315,27.442 1.828,25.13 0.94,22.569C0.052,20.008 -0.211,17.271 0.173,14.588C0.558,11.905 1.579,9.352 3.15,7.143C4.722,4.935 6.799,3.134 9.209,1.891C11.618,0.649 14.289,0 17,0ZM17,4C13.552,4 10.246,5.37 7.808,7.808C5.37,10.246 4,13.552 4,17C4,20.448 5.37,23.754 7.808,26.192C10.246,28.63 13.552,30 17,30C20.448,30 23.754,28.63 26.192,26.192C28.63,23.754 30,20.448 30,17C30,13.552 28.63,10.246 26.192,7.808C23.754,5.37 20.448,4 17,4ZM17,6C19.917,6 22.715,7.159 24.778,9.222C26.841,11.285 28,14.083 28,17C28,19.917 26.841,22.715 24.778,24.778C22.715,26.841 19.917,28 17,28C14.083,28 11.285,26.841 9.222,24.778C7.159,22.715 6,19.917 6,17C6,14.083 7.159,11.285 9.222,9.222C11.285,7.159 14.083,6 17,6Z" fill="#000000"/>
</svg>
