<svg width="16" height="12" viewBox="0 0 16 12" fill="none" xmlns="http://www.w3.org/2000/svg" xmlns:xlink="http://www.w3.org/1999/xlink">
<path d="M3.103,3.777C2.406,2.92 1.146,2.792 0.289,3.489C-0.567,4.187 -0.695,5.447 0.002,6.303L3.103,3.777ZM5.291,9.628L3.741,10.891C4.109,11.343 4.656,11.612 5.239,11.627C5.822,11.643 6.383,11.403 6.774,10.97L5.291,9.628ZM13.835,3.17C14.577,2.352 14.514,1.087 13.695,0.345C12.876,-0.396 11.611,-0.333 10.87,0.486L13.835,3.17ZM0.002,6.303L3.741,10.891L6.842,8.365L3.103,3.777L0.002,6.303ZM6.774,10.97L13.835,3.17L10.87,0.486L3.809,8.286L6.774,10.97Z" fill="#FFFFFF"/>
</svg>
