<svg width="32" height="30" viewBox="0 0 32 30" fill="none" xmlns="http://www.w3.org/2000/svg" xmlns:xlink="http://www.w3.org/1999/xlink">
<path d="M31.084,25.178L17.769,0.452C16.825,-1.302 14.311,-1.302 13.366,0.452L0.052,25.178C-0.153,25.559 -0.255,25.986 -0.246,26.418C-0.236,26.85 -0.115,27.273 0.106,27.644C0.328,28.015 0.642,28.323 1.017,28.536C1.393,28.75 1.818,28.863 2.25,28.863L28.882,28.863C29.315,28.863 29.74,28.751 30.116,28.538C30.492,28.324 30.807,28.017 31.029,27.646C31.25,27.274 31.372,26.852 31.382,26.419C31.391,25.987 31.289,25.559 31.084,25.178ZM15.568,25.035C15.259,25.035 14.957,24.944 14.7,24.772C14.443,24.6 14.243,24.356 14.124,24.071C14.006,23.785 13.975,23.471 14.035,23.168C14.096,22.865 14.245,22.586 14.463,22.368C14.682,22.149 14.96,22.001 15.263,21.94C15.566,21.88 15.88,21.911 16.166,22.029C16.451,22.147 16.695,22.348 16.867,22.605C17.039,22.862 17.13,23.164 17.13,23.473C17.13,23.887 16.966,24.285 16.673,24.578C16.38,24.871 15.982,25.035 15.568,25.035ZM17.265,9.32L16.816,18.852C16.816,19.183 16.685,19.501 16.45,19.736C16.216,19.97 15.898,20.102 15.566,20.102C15.235,20.102 14.917,19.97 14.683,19.736C14.448,19.501 14.316,19.183 14.316,18.852L13.868,9.324C13.858,9.097 13.894,8.869 13.973,8.656C14.053,8.442 14.175,8.247 14.332,8.081C14.488,7.916 14.677,7.784 14.886,7.693C15.095,7.602 15.32,7.554 15.548,7.552L15.564,7.552C15.793,7.551 16.021,7.598 16.232,7.688C16.443,7.778 16.633,7.91 16.792,8.076C16.95,8.241 17.074,8.437 17.155,8.652C17.235,8.867 17.272,9.096 17.262,9.325L17.265,9.32Z" fill="#5BEEFF"/>
</svg>
