<svg width="14" height="14" viewBox="0 0 14 14" fill="none" xmlns="http://www.w3.org/2000/svg" xmlns:xlink="http://www.w3.org/1999/xlink">
<path d="M11.463,6.483C11.994,5.944 12.288,5.217 12.282,4.461C12.276,3.705 11.97,2.983 11.432,2.452C11.165,2.19 10.849,1.982 10.502,1.842C10.155,1.701 9.784,1.631 9.41,1.633C8.654,1.639 7.932,1.945 7.401,2.484C7.257,2.628 7.074,2.805 6.852,3.014L6.235,3.595L5.618,3.014C5.395,2.804 5.212,2.627 5.068,2.484C4.534,1.949 3.809,1.649 3.053,1.649C2.297,1.649 1.572,1.949 1.038,2.484C-0.063,3.586 -0.076,5.367 0.997,6.474L6.235,11.712L11.463,6.483ZM0.401,1.848C0.749,1.5 1.162,1.223 1.617,1.035C2.073,0.846 2.56,0.749 3.053,0.749C3.545,0.749 4.033,0.846 4.488,1.035C4.943,1.223 5.357,1.5 5.705,1.848C5.841,1.985 6.018,2.155 6.235,2.359C6.451,2.155 6.628,1.985 6.765,1.847C7.463,1.139 8.414,0.736 9.409,0.729C10.403,0.721 11.36,1.109 12.069,1.807C12.777,2.505 13.18,3.455 13.187,4.45C13.195,5.444 12.807,6.401 12.109,7.11L6.765,12.454C6.625,12.595 6.434,12.674 6.235,12.674C6.036,12.674 5.845,12.595 5.705,12.454L0.36,7.109C-0.326,6.402 -0.706,5.454 -0.698,4.469C-0.69,3.485 -0.296,2.543 0.401,1.846L0.401,1.848Z" clip-rule="evenodd" fill-rule="evenodd" fill="#000000"/>
</svg>
