<svg width="44" height="42" viewBox="0 0 44 42" fill="none" xmlns="http://www.w3.org/2000/svg" xmlns:xlink="http://www.w3.org/1999/xlink">
<path d="M18.749,1.975C18.979,1.581 19.307,1.255 19.702,1.028C20.097,0.801 20.544,0.682 20.999,0.682C21.455,0.682 21.902,0.801 22.297,1.028C22.692,1.255 23.02,1.581 23.249,1.975L29.072,11.97L40.381,14.42C40.825,14.517 41.237,14.729 41.575,15.034C41.912,15.339 42.164,15.728 42.304,16.161C42.445,16.594 42.47,17.056 42.376,17.502C42.282,17.947 42.073,18.36 41.77,18.7L34.062,27.327L35.229,38.837C35.275,39.29 35.201,39.748 35.015,40.164C34.829,40.579 34.537,40.939 34.168,41.207C33.8,41.475 33.367,41.641 32.914,41.69C32.461,41.738 32.004,41.667 31.587,41.483L20.999,36.816L10.412,41.483C9.995,41.667 9.537,41.738 9.084,41.69C8.631,41.641 8.199,41.475 7.83,41.207C7.462,40.939 7.17,40.579 6.984,40.164C6.798,39.748 6.724,39.29 6.77,38.837L7.937,27.327L0.229,18.702C-0.075,18.362 -0.284,17.949 -0.378,17.503C-0.473,17.058 -0.448,16.595 -0.307,16.162C-0.167,15.728 0.085,15.34 0.423,15.034C0.761,14.728 1.173,14.517 1.618,14.42L12.927,11.97L18.749,1.975Z" fill="#BABABC"/>
</svg>
