<svg width="26" height="36" viewBox="0 0 26 36" fill="none" xmlns="http://www.w3.org/2000/svg" xmlns:xlink="http://www.w3.org/1999/xlink">
<path d="M25.75,5.25L25.75,35L0.25,35L0.25,5.25L8.75,5.25C8.75,4.663 8.861,4.116 9.082,3.606C9.303,3.097 9.608,2.644 9.995,2.245C10.382,1.847 10.831,1.542 11.34,1.332C11.849,1.122 12.402,1.011 13,1C13.587,1 14.134,1.111 14.644,1.332C15.153,1.553 15.606,1.858 16.005,2.245C16.403,2.632 16.708,3.081 16.918,3.59C17.128,4.099 17.239,4.652 17.25,5.25L25.75,5.25ZM6.625,9.5L19.375,9.5L19.375,7.375L15.125,7.375L15.125,5.25C15.125,4.951 15.07,4.674 14.959,4.42C14.848,4.165 14.699,3.944 14.511,3.756C14.323,3.568 14.096,3.413 13.83,3.291C13.564,3.169 13.288,3.114 13,3.125C12.701,3.125 12.424,3.18 12.17,3.291C11.915,3.402 11.694,3.551 11.506,3.739C11.318,3.927 11.163,4.154 11.041,4.42C10.919,4.686 10.864,4.962 10.875,5.25L10.875,7.375L6.625,7.375L6.625,9.5ZM23.011,16.622L20.753,14.364L9.813,25.305L5.247,20.739L2.989,22.997L9.813,29.82L23.011,16.622Z" fill="#000000"/>
</svg>
