<svg width="36" height="38" viewBox="0 0 36 38" fill="none" xmlns="http://www.w3.org/2000/svg" xmlns:xlink="http://www.w3.org/1999/xlink">
<path d="M18,0C14.287,0 10.726,1.475 8.101,4.101C5.475,6.726 4,10.287 4,14L4,21.056C4.001,21.366 3.929,21.672 3.79,21.95L0.356,28.816C0.189,29.151 0.109,29.524 0.126,29.899C0.143,30.274 0.255,30.638 0.453,30.957C0.65,31.276 0.925,31.539 1.253,31.722C1.58,31.904 1.949,32 2.324,32L33.676,32C34.051,32 34.42,31.904 34.748,31.722C35.075,31.539 35.351,31.276 35.548,30.957C35.745,30.638 35.858,30.274 35.874,29.899C35.891,29.524 35.812,29.151 35.644,28.816L32.212,21.95C32.073,21.672 32.001,21.366 32,21.056L32,14C32,10.287 30.525,6.726 27.9,4.101C25.274,1.475 21.713,0 18,0ZM18,38C16.759,38.001 15.548,37.616 14.534,36.9C13.521,36.183 12.754,35.17 12.34,34L23.66,34C23.247,35.17 22.48,36.183 21.466,36.9C20.453,37.616 19.242,38.001 18,38Z" fill="#000000"/>
</svg>
