<svg width="40" height="32" viewBox="0 0 40 32" fill="none" xmlns="http://www.w3.org/2000/svg" xmlns:xlink="http://www.w3.org/1999/xlink">
<path d="M2.3,12L37.694,12C38.962,12 39.994,10.969 39.994,9.7C39.994,9.244 39.856,8.8 39.606,8.425L34.888,1.337C34.331,0.5 33.4,0 32.394,0L7.606,0C6.606,0 5.669,0.5 5.112,1.337L0.388,8.419C0.138,8.8 0,9.244 0,9.694C0,10.969 1.031,12 2.3,12ZM4,14L4,29C4,30.656 5.344,32 7,32L21,32C22.656,32 24,30.656 24,29L24,14L20,14L20,24L8,24L8,14L4,14ZM32,14L32,30C32,31.106 32.894,32 34,32C35.106,32 36,31.106 36,30L36,14L32,14Z" fill="#000000"/>
</svg>
