<svg width="32" height="36" viewBox="0 0 32 36" fill="none" xmlns="http://www.w3.org/2000/svg" xmlns:xlink="http://www.w3.org/1999/xlink">
<path d="M0.834,2.834C0.834,4.025 1.809,5 3.001,5L29.001,5C30.192,5 31.167,4.025 31.167,2.834C31.167,1.642 30.192,0.667 29.001,0.667L3.001,0.667C1.809,0.667 0.834,1.642 0.834,2.834ZM6.056,22.334L9.501,22.334L9.501,33.167C9.501,34.359 10.476,35.334 11.667,35.334L20.334,35.334C21.526,35.334 22.501,34.359 22.501,33.167L22.501,22.334L25.946,22.334C27.874,22.334 28.849,19.994 27.484,18.629L17.539,8.684C17.339,8.483 17.1,8.323 16.838,8.215C16.576,8.106 16.295,8.05 16.011,8.05C15.728,8.05 15.447,8.106 15.185,8.215C14.923,8.323 14.684,8.483 14.484,8.684L4.539,18.629C3.174,19.994 4.127,22.334 6.056,22.334Z" fill="#000000"/>
</svg>
