<svg width="40" height="34" viewBox="0 0 40 34" fill="none" xmlns="http://www.w3.org/2000/svg" xmlns:xlink="http://www.w3.org/1999/xlink">
<path d="M2.3,12.693L37.694,12.693C38.962,12.693 39.994,11.662 39.994,10.393C39.994,9.937 39.856,9.493 39.606,9.118L34.888,2.031C34.331,1.193 33.4,0.693 32.394,0.693L7.606,0.693C6.606,0.693 5.669,1.193 5.112,2.031L0.388,9.112C0.138,9.493 0,9.937 0,10.387C0,11.662 1.031,12.693 2.3,12.693ZM4,14.693L4,29.693C4,31.35 5.344,32.693 7,32.693L21,32.693C22.656,32.693 24,31.35 24,29.693L24,14.693L20,14.693L20,24.693L8,24.693L8,14.693L4,14.693ZM32,14.693L32,30.693C32,31.8 32.894,32.693 34,32.693C35.106,32.693 36,31.8 36,30.693L36,14.693L32,14.693Z" fill="#FFFFFF"/>
</svg>
