<svg width="32" height="20" viewBox="0 0 32 20" fill="none" xmlns="http://www.w3.org/2000/svg" xmlns:xlink="http://www.w3.org/1999/xlink">
<path d="M0,1.5C0,1.102 0.158,0.721 0.439,0.439C0.721,0.158 1.102,0 1.5,0L30.5,0C30.898,0 31.279,0.158 31.561,0.439C31.842,0.721 32,1.102 32,1.5C32,1.898 31.842,2.279 31.561,2.561C31.279,2.842 30.898,3 30.5,3L1.5,3C1.102,3 0.721,2.842 0.439,2.561C0.158,2.279 0,1.898 0,1.5ZM0,10C0,9.602 0.158,9.221 0.439,8.939C0.721,8.658 1.102,8.5 1.5,8.5L30.5,8.5C30.898,8.5 31.279,8.658 31.561,8.939C31.842,9.221 32,9.602 32,10C32,10.398 31.842,10.779 31.561,11.061C31.279,11.342 30.898,11.5 30.5,11.5L1.5,11.5C1.102,11.5 0.721,11.342 0.439,11.061C0.158,10.779 0,10.398 0,10ZM1.5,17C1.102,17 0.721,17.158 0.439,17.439C0.158,17.721 0,18.102 0,18.5C0,18.898 0.158,19.279 0.439,19.561C0.721,19.842 1.102,20 1.5,20L20.5,20C20.898,20 21.279,19.842 21.561,19.561C21.842,19.279 22,18.898 22,18.5C22,18.102 21.842,17.721 21.561,17.439C21.279,17.158 20.898,17 20.5,17L1.5,17Z" clip-rule="evenodd" fill-rule="evenodd" fill="#000000"/>
</svg>
