<svg width="32" height="24" viewBox="0 0 32 24" fill="none" xmlns="http://www.w3.org/2000/svg" xmlns:xlink="http://www.w3.org/1999/xlink">
<path d="M15.251,23.632L0.725,5.373C0.344,4.895 0.102,4.313 0.026,3.695C-0.05,3.077 0.043,2.45 0.296,1.886C0.548,1.322 0.949,0.845 1.451,0.511C1.952,0.177 2.535,0 3.129,0L28.875,0C29.469,0.001 30.051,0.178 30.552,0.513C31.053,0.847 31.453,1.324 31.705,1.888C31.957,2.451 32.05,3.079 31.974,3.696C31.898,4.313 31.656,4.895 31.275,5.373L16.753,23.632C16.661,23.747 16.546,23.84 16.416,23.903C16.287,23.967 16.145,24 16.002,24C15.859,24 15.717,23.967 15.587,23.903C15.458,23.84 15.343,23.747 15.251,23.632Z" fill="#000000"/>
</svg>
