<svg width="26" height="34" viewBox="0 0 26 34" fill="none" xmlns="http://www.w3.org/2000/svg" xmlns:xlink="http://www.w3.org/1999/xlink">
<path d="M25.75,4.25L25.75,34L0.25,34L0.25,4.25L8.75,4.25C8.75,3.663 8.861,3.116 9.082,2.606C9.303,2.097 9.608,1.644 9.995,1.245C10.382,0.847 10.831,0.542 11.34,0.332C11.849,0.122 12.402,0.011 13,0C13.587,0 14.134,0.111 14.644,0.332C15.153,0.553 15.606,0.858 16.005,1.245C16.403,1.632 16.708,2.081 16.918,2.59C17.128,3.099 17.239,3.652 17.25,4.25L25.75,4.25ZM6.625,8.5L19.375,8.5L19.375,6.375L15.125,6.375L15.125,4.25C15.125,3.951 15.07,3.674 14.959,3.42C14.848,3.165 14.699,2.944 14.511,2.756C14.323,2.568 14.096,2.413 13.83,2.291C13.564,2.169 13.288,2.114 13,2.125C12.701,2.125 12.424,2.18 12.17,2.291C11.915,2.402 11.694,2.551 11.506,2.739C11.318,2.927 11.163,3.154 11.041,3.42C10.919,3.686 10.864,3.962 10.875,4.25L10.875,6.375L6.625,6.375L6.625,8.5ZM23.011,15.622L20.753,13.364L9.813,24.305L5.247,19.739L2.989,21.997L9.813,28.82L23.011,15.622Z" fill="#000000"/>
</svg>
