<svg width="24" height="28" viewBox="0 0 24 28" fill="none" xmlns="http://www.w3.org/2000/svg" xmlns:xlink="http://www.w3.org/1999/xlink">
<path d="M0.688,0.284C-0.297,1.269 -0.297,2.852 -0.297,6.022L-0.297,21.151C-0.297,24.321 -0.297,25.904 0.688,26.889C1.673,27.874 3.257,27.874 6.427,27.874L16.512,27.874C19.683,27.874 21.266,27.874 22.251,26.889C23.236,25.904 23.236,24.321 23.236,21.151L23.236,6.022C23.236,2.852 23.236,1.269 22.251,0.284C21.266,-0.701 19.683,-0.701 16.512,-0.701L6.427,-0.701C3.257,-0.701 1.673,-0.701 0.688,0.284ZM6.427,6.022C5.981,6.022 5.554,6.2 5.238,6.515C4.923,6.83 4.746,7.258 4.746,7.703C4.746,8.149 4.923,8.577 5.238,8.892C5.554,9.207 5.981,9.384 6.427,9.384L16.512,9.384C16.958,9.384 17.386,9.207 17.701,8.892C18.016,8.577 18.193,8.149 18.193,7.703C18.193,7.258 18.016,6.83 17.701,6.515C17.386,6.2 16.958,6.022 16.512,6.022L6.427,6.022ZM6.427,12.746C5.981,12.746 5.554,12.923 5.238,13.238C4.923,13.554 4.746,13.981 4.746,14.427C4.746,14.873 4.923,15.3 5.238,15.616C5.554,15.931 5.981,16.108 6.427,16.108L16.512,16.108C16.958,16.108 17.386,15.931 17.701,15.616C18.016,15.3 18.193,14.873 18.193,14.427C18.193,13.981 18.016,13.554 17.701,13.238C17.386,12.923 16.958,12.746 16.512,12.746L6.427,12.746ZM6.427,19.47C5.981,19.47 5.554,19.647 5.238,19.962C4.923,20.277 4.746,20.705 4.746,21.151C4.746,21.596 4.923,22.024 5.238,22.339C5.554,22.654 5.981,22.831 6.427,22.831L13.151,22.831C13.596,22.831 14.024,22.654 14.339,22.339C14.654,22.024 14.832,21.596 14.832,21.151C14.832,20.705 14.654,20.277 14.339,19.962C14.024,19.647 13.596,19.47 13.151,19.47L6.427,19.47Z" clip-rule="evenodd" fill-rule="evenodd" fill="#000000"/>
</svg>
