<svg width="44" height="32" viewBox="0 0 44 32" fill="none" xmlns="http://www.w3.org/2000/svg" xmlns:xlink="http://www.w3.org/1999/xlink">
<path d="M6.535,13.699C8.946,13.699 10.906,11.72 10.906,9.287C10.906,6.853 8.946,4.874 6.535,4.874C4.125,4.874 2.165,6.853 2.165,9.287C2.165,11.72 4.125,13.699 6.535,13.699ZM37.128,13.699C39.539,13.699 41.498,11.72 41.498,9.287C41.498,6.853 39.539,4.874 37.128,4.874C34.717,4.874 32.758,6.853 32.758,9.287C32.758,11.72 34.717,13.699 37.128,13.699ZM39.313,15.905L34.943,15.905C33.741,15.905 32.655,16.395 31.863,17.188C34.615,18.711 36.568,21.462 36.991,24.73L41.498,24.73C42.707,24.73 43.684,23.744 43.684,22.524L43.684,20.318C43.684,17.884 41.724,15.905 39.313,15.905ZM21.832,15.905C26.059,15.905 29.48,12.451 29.48,8.184C29.48,3.916 26.059,0.462 21.832,0.462C17.605,0.462 14.184,3.916 14.184,8.184C14.184,12.451 17.605,15.905 21.832,15.905ZM27.076,18.111L26.509,18.111C25.089,18.801 23.512,19.215 21.832,19.215C20.152,19.215 18.581,18.801 17.154,18.111L16.587,18.111C12.244,18.111 8.721,21.669 8.721,26.054L8.721,28.039C8.721,29.866 10.189,31.349 11.998,31.349L31.665,31.349C33.475,31.349 34.943,29.866 34.943,28.039L34.943,26.054C34.943,21.669 31.419,18.111 27.076,18.111ZM11.8,17.188C11.008,16.395 9.922,15.905 8.721,15.905L4.35,15.905C1.94,15.905 -0.02,17.884 -0.02,20.318L-0.02,22.524C-0.02,23.744 0.956,24.73 2.165,24.73L6.665,24.73C7.095,21.462 9.048,18.711 11.8,17.188Z" fill="#000000"/>
</svg>
