<svg width="52" height="46" viewBox="0 0 52 46" fill="none" xmlns="http://www.w3.org/2000/svg" xmlns:xlink="http://www.w3.org/1999/xlink">
<path d="M37.236,0.975C32.399,0.975 28.266,4.422 25.995,6.799C23.725,4.422 19.601,0.975 14.766,0.975C6.433,0.975 0.615,6.783 0.615,15.098C0.615,24.259 7.841,30.181 14.831,35.908C18.131,38.615 21.546,41.412 24.165,44.514C24.606,45.033 25.252,45.333 25.931,45.333L26.065,45.333C26.745,45.333 27.389,45.031 27.828,44.514C30.452,41.412 33.865,38.613 37.167,35.908C44.155,30.183 51.385,24.262 51.385,15.098C51.385,6.783 45.567,0.975 37.236,0.975Z" fill="#EC0C0C"/>
</svg>
