<svg width="42" height="40" viewBox="0 0 42 40" fill="none" xmlns="http://www.w3.org/2000/svg" xmlns:xlink="http://www.w3.org/1999/xlink">
<path d="M14.5,40L13.7,33.6C13.267,33.433 12.859,33.233 12.476,33C12.094,32.767 11.718,32.517 11.35,32.25L5.4,34.75L-0.1,25.25L5.05,21.35C5.017,21.117 5,20.892 5,20.676L5,19.326C5,19.109 5.017,18.883 5.05,18.65L-0.1,14.75L5.4,5.25L11.35,7.75C11.717,7.483 12.1,7.233 12.5,7C12.9,6.767 13.3,6.567 13.7,6.4L14.5,0L25.5,0L26.3,6.4C26.734,6.567 27.142,6.767 27.526,7C27.91,7.233 28.285,7.483 28.65,7.75L34.6,5.25L40.1,14.75L34.95,18.65C34.984,18.883 35,19.109 35,19.326L35,20.674C35,20.891 34.967,21.117 34.9,21.35L40.05,25.25L34.55,34.75L28.65,32.25C28.284,32.517 27.9,32.767 27.5,33C27.1,33.233 26.7,33.433 26.3,33.6L25.5,40L14.5,40ZM20.1,27C22.034,27 23.684,26.317 25.05,24.95C26.417,23.583 27.1,21.933 27.1,20C27.1,18.067 26.417,16.417 25.05,15.05C23.684,13.683 22.034,13 20.1,13C18.134,13 16.475,13.683 15.124,15.05C13.774,16.417 13.099,18.067 13.1,20C13.102,21.933 13.777,23.583 15.126,24.95C16.476,26.317 18.134,27 20.1,27Z" fill="#000000"/>
</svg>
