<svg width="44" height="42" viewBox="0 0 44 42" fill="none" xmlns="http://www.w3.org/2000/svg" xmlns:xlink="http://www.w3.org/1999/xlink">
<path d="M18.75,1.975C18.98,1.581 19.308,1.255 19.703,1.028C20.098,0.801 20.545,0.682 21,0.682C21.456,0.682 21.903,0.801 22.298,1.028C22.693,1.255 23.021,1.581 23.25,1.975L29.073,11.97L40.382,14.42C40.826,14.517 41.238,14.729 41.576,15.034C41.913,15.339 42.165,15.728 42.305,16.161C42.446,16.594 42.471,17.056 42.377,17.502C42.283,17.947 42.074,18.36 41.771,18.7L34.063,27.327L35.23,38.837C35.276,39.29 35.202,39.748 35.016,40.164C34.83,40.579 34.538,40.939 34.169,41.207C33.801,41.475 33.368,41.641 32.915,41.69C32.462,41.738 32.005,41.667 31.588,41.483L21,36.816L10.413,41.483C9.996,41.667 9.538,41.738 9.085,41.69C8.632,41.641 8.2,41.475 7.831,41.207C7.463,40.939 7.171,40.579 6.985,40.164C6.799,39.748 6.725,39.29 6.771,38.837L7.938,27.327L0.23,18.702C-0.074,18.362 -0.283,17.949 -0.377,17.503C-0.472,17.058 -0.447,16.595 -0.306,16.162C-0.166,15.728 0.086,15.34 0.424,15.034C0.762,14.728 1.174,14.517 1.619,14.42L12.927,11.97L18.75,1.975Z" fill="#BABABC"/>
</svg>
