<svg width="50" height="52" viewBox="0 0 50 52" fill="none" xmlns="http://www.w3.org/2000/svg" xmlns:xlink="http://www.w3.org/1999/xlink">
<path d="M33.25,0.376C29.894,0.376 26.766,1.736 24.188,4.312C21.26,7.24 19.92,10.84 20.312,14.688C20.606,17.544 21.91,20.424 24,23L9.5,37.5L6.874,34.874C5.594,33.588 4.532,34.654 3.25,35.938L2,37.25C0.716,38.528 -0.344,39.53 0.938,40.812L3.56,43.44L1.5,45.5C1.195,45.803 0.953,46.163 0.788,46.56C0.622,46.957 0.537,47.383 0.537,47.813C0.537,48.243 0.622,48.669 0.788,49.066C0.953,49.463 1.195,49.823 1.5,50.126C2.78,51.404 4.842,51.404 6.126,50.126L28.876,27.376C31.34,28.92 34.016,29.75 36.624,29.75C39.978,29.75 43.112,28.39 45.688,25.812C48.618,22.886 49.956,19.286 49.562,15.438C49.21,11.976 47.372,8.492 44.438,5.562C41.114,2.234 37.144,0.376 33.25,0.376ZM33.376,4.5C36.162,4.5 39.056,5.926 41.562,8.438C43.79,10.658 45.18,13.242 45.438,15.75C45.704,18.358 44.786,20.842 42.75,22.876C40.926,24.696 38.8,25.624 36.5,25.624C33.712,25.624 30.824,24.196 28.312,21.688C26.086,19.462 24.696,16.884 24.438,14.376C24.174,11.768 25.088,9.286 27.126,7.25C28.95,5.43 31.078,4.5 33.376,4.5Z" fill="#000000"/>
</svg>
