<svg width="40" height="40" viewBox="0 0 40 40" fill="none" xmlns="http://www.w3.org/2000/svg" xmlns:xlink="http://www.w3.org/1999/xlink">
<path d="M38.5,21.5C39.328,21.5 40,20.828 40,20C40,19.171 39.328,18.5 38.5,18.5L38.5,21.5ZM13.79,18.5C12.962,18.5 12.29,19.171 12.29,20C12.29,20.828 12.962,21.5 13.79,21.5L13.79,18.5ZM1.5,18.5C0.672,18.5 0,19.171 0,20C0,20.828 0.672,21.5 1.5,21.5L1.5,18.5ZM38.5,34.714C39.328,34.714 40,34.042 40,33.214C40,32.385 39.328,31.714 38.5,31.714L38.5,34.714ZM1.5,31.714C0.672,31.714 0,32.385 0,33.214C0,34.042 0.672,34.714 1.5,34.714L1.5,31.714ZM38.5,8.286C39.328,8.286 40,7.614 40,6.786C40,5.957 39.328,5.286 38.5,5.286L38.5,8.286ZM32.29,5.286C31.462,5.286 30.79,5.957 30.79,6.786C30.79,7.614 31.462,8.286 32.29,8.286L32.29,5.286ZM1.5,5.286C0.672,5.286 0,5.957 0,6.786C0,7.614 0.672,8.286 1.5,8.286L1.5,5.286ZM27.928,11.146L27.928,12.646L27.928,11.146ZM32.288,6.786L33.788,6.786L32.288,6.786ZM13.788,20L15.288,20L13.788,20ZM22.642,37.576L22.642,39.076L22.642,37.576ZM22.642,28.854L22.642,27.354L22.642,28.854ZM38.5,18.5L13.79,18.5L13.79,21.5L38.5,21.5L38.5,18.5ZM5.068,18.5L1.5,18.5L1.5,21.5L5.068,21.5L5.068,18.5ZM38.5,31.714L27.004,31.714L27.004,34.714L38.5,34.714L38.5,31.714ZM18.282,31.714L1.5,31.714L1.5,34.714L18.282,34.714L18.282,31.714ZM38.5,5.286L32.29,5.286L32.29,8.286L38.5,8.286L38.5,5.286ZM23.568,5.286L1.5,5.286L1.5,8.286L23.568,8.286L23.568,5.286ZM27.928,12.646C28.698,12.646 29.46,12.494 30.171,12.2L29.022,9.428C28.675,9.572 28.304,9.646 27.928,9.646L27.928,12.646ZM30.171,12.2C30.881,11.905 31.527,11.474 32.072,10.929L29.95,8.808C29.685,9.074 29.369,9.284 29.022,9.428L30.171,12.2ZM32.072,10.929C32.616,10.385 33.047,9.739 33.342,9.028L30.57,7.88C30.427,8.227 30.216,8.543 29.95,8.808L32.072,10.929ZM33.342,9.028C33.636,8.317 33.788,7.555 33.788,6.786L30.788,6.786C30.788,7.161 30.714,7.533 30.57,7.88L33.342,9.028ZM33.788,6.786C33.788,6.016 33.636,5.254 33.342,4.543L30.57,5.691C30.714,6.038 30.788,6.41 30.788,6.786L33.788,6.786ZM33.342,4.543C33.047,3.832 32.616,3.186 32.072,2.642L29.95,4.763C30.216,5.029 30.427,5.344 30.57,5.691L33.342,4.543ZM32.072,2.642C31.527,2.098 30.881,1.666 30.171,1.372L29.022,4.143C29.369,4.287 29.685,4.498 29.95,4.763L32.072,2.642ZM30.171,1.372C29.46,1.077 28.698,0.926 27.928,0.926L27.928,3.926C28.304,3.926 28.675,4 29.022,4.143L30.171,1.372ZM27.928,0.926C26.374,0.926 24.883,1.543 23.784,2.642L25.906,4.763C26.442,4.227 27.169,3.926 27.928,3.926L27.928,0.926ZM23.784,2.642C22.685,3.741 22.068,5.232 22.068,6.786L25.068,6.786C25.068,6.027 25.369,5.3 25.906,4.763L23.784,2.642ZM22.068,6.786C22.068,8.34 22.685,9.83 23.784,10.929L25.906,8.808C25.369,8.272 25.068,7.544 25.068,6.786L22.068,6.786ZM23.784,10.929C24.883,12.028 26.374,12.646 27.928,12.646L27.928,9.646C27.169,9.646 26.442,9.344 25.906,8.808L23.784,10.929ZM9.428,25.86C10.982,25.86 12.473,25.242 13.572,24.143L11.45,22.022C10.914,22.558 10.187,22.86 9.428,22.86L9.428,25.86ZM13.572,24.143C14.671,23.044 15.288,21.554 15.288,20L12.288,20C12.288,20.758 11.987,21.486 11.45,22.022L13.572,24.143ZM15.288,20C15.288,18.446 14.671,16.955 13.572,15.856L11.45,17.977C11.987,18.514 12.288,19.241 12.288,20L15.288,20ZM13.572,15.856C12.473,14.757 10.982,14.14 9.428,14.14L9.428,17.14C10.187,17.14 10.914,17.441 11.45,17.977L13.572,15.856ZM9.428,14.14C7.874,14.14 6.383,14.757 5.284,15.856L7.406,17.977C7.942,17.441 8.669,17.14 9.428,17.14L9.428,14.14ZM5.284,15.856C4.185,16.955 3.568,18.446 3.568,20L6.568,20C6.568,19.241 6.869,18.514 7.406,17.977L5.284,15.856ZM3.568,20C3.568,21.554 4.185,23.044 5.284,24.143L7.406,22.022C6.869,21.486 6.568,20.758 6.568,20L3.568,20ZM5.284,24.143C6.383,25.242 7.874,25.86 9.428,25.86L9.428,22.86C8.669,22.86 7.942,22.558 7.406,22.022L5.284,24.143ZM22.642,39.076C24.196,39.076 25.687,38.458 26.786,37.359L24.665,35.238C24.128,35.774 23.401,36.076 22.642,36.076L22.642,39.076ZM26.786,37.359C27.885,36.26 28.504,34.769 28.504,33.214L25.504,33.214C25.504,33.972 25.202,34.701 24.665,35.238L26.786,37.359ZM28.504,33.214C28.504,31.658 27.885,30.169 26.786,29.07L24.665,31.192C25.202,31.729 25.504,32.456 25.504,33.214L28.504,33.214ZM26.786,29.07C25.687,27.971 24.196,27.354 22.642,27.354L22.642,30.354C23.401,30.354 24.128,30.655 24.665,31.192L26.786,29.07ZM22.642,27.354C21.088,27.354 19.597,27.971 18.498,29.07L20.62,31.191C21.156,30.655 21.883,30.354 22.642,30.354L22.642,27.354ZM18.498,29.07C17.399,30.169 16.782,31.66 16.782,33.214L19.782,33.214C19.782,32.455 20.083,31.728 20.62,31.191L18.498,29.07ZM16.782,33.214C16.782,34.768 17.399,36.258 18.498,37.357L20.62,35.236C20.083,34.7 19.782,33.972 19.782,33.214L16.782,33.214ZM18.498,37.357C19.596,38.455 21.086,39.076 22.642,39.076L22.642,36.076C21.885,36.076 21.157,35.774 20.62,35.236L18.498,37.357Z" fill="#000000"/>
</svg>
