<svg width="50" height="52" viewBox="0 0 50 52" fill="none" xmlns="http://www.w3.org/2000/svg" xmlns:xlink="http://www.w3.org/1999/xlink">
<path d="M33.25,0.375C29.894,0.375 26.766,1.735 24.188,4.311C21.26,7.239 19.92,10.839 20.312,14.687C20.606,17.543 21.91,20.423 24,22.999L9.5,37.499L6.874,34.873C5.594,33.587 4.532,34.653 3.25,35.937L2,37.249C0.716,38.527 -0.344,39.529 0.938,40.811L3.56,43.439L1.5,45.499C1.195,45.802 0.953,46.162 0.788,46.559C0.622,46.956 0.537,47.382 0.537,47.812C0.537,48.242 0.622,48.668 0.788,49.065C0.953,49.462 1.195,49.822 1.5,50.125C2.78,51.403 4.842,51.403 6.126,50.125L28.876,27.375C31.34,28.919 34.016,29.749 36.624,29.749C39.978,29.749 43.112,28.389 45.688,25.811C48.618,22.885 49.956,19.285 49.562,15.437C49.21,11.975 47.372,8.491 44.438,5.561C41.114,2.233 37.144,0.375 33.25,0.375ZM33.376,4.499C36.162,4.499 39.056,5.925 41.562,8.437C43.79,10.657 45.18,13.241 45.438,15.749C45.704,18.357 44.786,20.841 42.75,22.875C40.926,24.695 38.8,25.623 36.5,25.623C33.712,25.623 30.824,24.195 28.312,21.687C26.086,19.461 24.696,16.883 24.438,14.375C24.174,11.767 25.088,9.285 27.126,7.249C28.95,5.429 31.078,4.499 33.376,4.499Z" fill="#000000"/>
</svg>
