<svg width="46" height="42" viewBox="0 0 46 42" fill="none" xmlns="http://www.w3.org/2000/svg" xmlns:xlink="http://www.w3.org/1999/xlink">
<path d="M40.212,19.613C41.98,17.818 42.962,15.393 42.942,12.874C42.923,10.354 41.903,7.946 40.107,6.178C39.218,5.303 38.166,4.611 37.009,4.143C35.853,3.674 34.616,3.438 33.368,3.448C30.849,3.468 28.44,4.488 26.672,6.283C26.192,6.763 25.582,7.352 24.842,8.051L22.785,9.988L20.727,8.051C19.986,7.351 19.375,6.761 18.895,6.283C17.113,4.502 14.697,3.501 12.177,3.501C9.658,3.501 7.242,4.502 5.46,6.283C1.79,9.956 1.747,15.893 5.325,19.583L22.785,37.043L40.212,19.613ZM3.337,4.163C4.498,3.002 5.876,2.081 7.393,1.453C8.91,0.824 10.536,0.501 12.177,0.501C13.819,0.501 15.445,0.824 16.962,1.453C18.479,2.081 19.857,3.002 21.017,4.163C21.472,4.62 22.062,5.188 22.785,5.868C23.505,5.188 24.094,4.619 24.552,4.161C26.879,1.799 30.048,0.457 33.363,0.432C36.678,0.407 39.868,1.699 42.23,4.026C44.592,6.352 45.933,9.521 45.959,12.836C45.984,16.152 44.691,19.341 42.365,21.703L24.552,39.518C24.084,39.987 23.448,40.25 22.785,40.25C22.122,40.25 21.486,39.987 21.017,39.518L3.2,21.701C0.915,19.344 -0.351,16.183 -0.326,12.901C-0.3,9.619 1.016,6.479 3.337,4.158L3.337,4.163Z" clip-rule="evenodd" fill-rule="evenodd" fill="#000000"/>
</svg>
