<svg width="18" height="12" viewBox="0 0 18 12" fill="none" xmlns="http://www.w3.org/2000/svg" xmlns:xlink="http://www.w3.org/1999/xlink">
<path d="M7.617,11.681L0.187,2.765C-0.008,2.531 -0.132,2.247 -0.17,1.945C-0.209,1.643 -0.161,1.337 -0.032,1.062C0.097,0.786 0.302,0.553 0.558,0.39C0.815,0.227 1.113,0.141 1.417,0.141L14.585,0.141C14.889,0.141 15.187,0.228 15.443,0.391C15.699,0.554 15.904,0.787 16.033,1.062C16.162,1.338 16.209,1.644 16.17,1.945C16.132,2.247 16.008,2.531 15.813,2.765L8.385,11.681C8.338,11.737 8.279,11.782 8.213,11.813C8.147,11.844 8.074,11.86 8.001,11.86C7.928,11.86 7.855,11.844 7.789,11.813C7.723,11.782 7.664,11.737 7.617,11.681Z" fill="#000000"/>
</svg>
