<svg width="50" height="52" viewBox="0 0 50 52" fill="none" xmlns="http://www.w3.org/2000/svg" xmlns:xlink="http://www.w3.org/1999/xlink">
<path d="M23.033,0.846C23.555,0.304 24.262,0 25,0C25.738,0 26.445,0.304 26.967,0.846L43.656,18.179L49.219,23.957C49.726,24.502 50.006,25.232 50,25.989C49.994,26.747 49.701,27.471 49.185,28.007C48.67,28.543 47.972,28.846 47.243,28.853C46.513,28.86 45.811,28.568 45.286,28.042L44.471,27.196L44.471,46.222C44.471,47.755 43.885,49.224 42.842,50.308C41.798,51.391 40.383,52 38.908,52L30.563,52C29.825,52 29.118,51.696 28.596,51.154C28.075,50.612 27.782,49.877 27.782,49.111L27.782,40.444L22.218,40.444L22.218,49.111C22.218,49.877 21.925,50.612 21.404,51.154C20.882,51.696 20.175,52 19.437,52L11.092,52C9.617,52 8.202,51.391 7.158,50.308C6.115,49.224 5.529,47.755 5.529,46.222L5.529,27.196L4.714,28.042C4.189,28.568 3.487,28.86 2.757,28.853C2.028,28.846 1.33,28.543 0.815,28.007C0.299,27.471 0.006,26.747 0,25.989C-0.006,25.232 0.274,24.502 0.781,23.957L6.344,18.179L23.033,0.846Z" clip-rule="evenodd" fill-rule="evenodd" fill="#FFFFFF"/>
</svg>
