<svg width="22" height="44" viewBox="0 0 22 44" fill="none" xmlns="http://www.w3.org/2000/svg" xmlns:xlink="http://www.w3.org/1999/xlink">
<path d="M19,10L19,33C19,37.42 15.42,41 11,41C6.58,41 3,37.42 3,33L3,8C3,6.674 3.527,5.402 4.464,4.464C5.402,3.527 6.674,3 8,3C9.326,3 10.598,3.527 11.536,4.464C12.473,5.402 13,6.674 13,8L13,29C13,30.1 12.1,31 11,31C9.9,31 9,30.1 9,29L9,10L6,10L6,29C6,30.326 6.527,31.598 7.464,32.536C8.402,33.473 9.674,34 11,34C12.326,34 13.598,33.473 14.536,32.536C15.473,31.598 16,30.326 16,29L16,8C16,3.58 12.42,0 8,0C3.58,0 0,3.58 0,8L0,33C0,39.08 4.92,44 11,44C17.08,44 22,39.08 22,33L22,10L19,10Z" fill="#1B1A57"/>
</svg>
