<svg width="18" height="12" viewBox="0 0 18 12" fill="none" xmlns="http://www.w3.org/2000/svg" xmlns:xlink="http://www.w3.org/1999/xlink">
<path d="M8.617,11.681L1.187,2.765C0.992,2.531 0.868,2.247 0.83,1.945C0.791,1.643 0.839,1.337 0.968,1.062C1.097,0.786 1.302,0.553 1.558,0.39C1.815,0.227 2.113,0.141 2.417,0.141L15.585,0.141C15.889,0.141 16.187,0.228 16.443,0.391C16.699,0.554 16.904,0.787 17.033,1.062C17.162,1.338 17.209,1.644 17.17,1.945C17.132,2.247 17.008,2.531 16.813,2.765L9.385,11.681C9.338,11.737 9.279,11.782 9.213,11.813C9.147,11.844 9.074,11.86 9.001,11.86C8.928,11.86 8.855,11.844 8.789,11.813C8.723,11.782 8.664,11.737 8.617,11.681Z" fill="#000000"/>
</svg>
