<svg width="42" height="40" viewBox="0 0 42 40" fill="none" xmlns="http://www.w3.org/2000/svg" xmlns:xlink="http://www.w3.org/1999/xlink">
<path d="M41.927,10.188L41.823,23.313C41.826,24.607 41.571,25.889 41.073,27.083C40.582,28.276 39.86,29.359 38.948,30.271C38.036,31.183 36.953,31.905 35.76,32.396C34.566,32.894 33.284,33.149 31.989,33.146L27.135,33.146L22.969,37.313C22.711,37.583 22.398,37.796 22.052,37.938C21.692,38.102 21.302,38.187 20.906,38.188C20.513,38.187 20.124,38.109 19.76,37.958C19.397,37.797 19.071,37.563 18.802,37.271L14.74,33.229L9.885,33.229C8.595,33.229 7.317,32.975 6.125,32.48C4.934,31.986 3.851,31.261 2.94,30.348C2.028,29.434 1.306,28.35 0.814,27.157C0.322,25.964 0.07,24.686 0.073,23.396L0.073,9.646C0.07,8.354 0.323,7.074 0.816,5.88C1.31,4.686 2.034,3.601 2.948,2.688C4.797,0.861 7.286,-0.171 9.885,-0.187L32.094,-0.187C33.386,-0.19 34.666,0.062 35.86,0.555C37.054,1.049 38.139,1.773 39.053,2.687C39.967,3.6 40.691,4.685 41.184,5.88C41.677,7.074 41.93,8.354 41.927,9.646L41.927,10.188Z" fill="#000000"/>
</svg>
