<svg width="38" height="38" viewBox="0 0 38 38" fill="none" xmlns="http://www.w3.org/2000/svg" xmlns:xlink="http://www.w3.org/1999/xlink">
<path d="M20.562,2.594C20.562,1.972 20.316,1.376 19.876,0.936C19.437,0.497 18.84,0.25 18.219,0.25C17.597,0.25 17.001,0.497 16.561,0.936C16.122,1.376 15.875,1.972 15.875,2.594L15.875,15.875L2.594,15.875C1.972,15.875 1.376,16.122 0.936,16.561C0.497,17.001 0.25,17.597 0.25,18.219C0.25,18.84 0.497,19.436 0.936,19.876C1.376,20.316 1.972,20.562 2.594,20.562L15.875,20.562L15.875,33.844C15.875,34.465 16.122,35.061 16.561,35.501C17.001,35.941 17.597,36.188 18.219,36.188C18.84,36.188 19.437,35.941 19.876,35.501C20.316,35.061 20.562,34.465 20.562,33.844L20.562,20.562L33.844,20.562C34.465,20.562 35.061,20.316 35.501,19.876C35.941,19.436 36.188,18.84 36.188,18.219C36.188,17.597 35.941,17.001 35.501,16.561C35.061,16.122 34.465,15.875 33.844,15.875L20.562,15.875L20.562,2.594Z" fill="#FFFFFF"/>
</svg>
