<svg width="18" height="12" viewBox="0 0 18 12" fill="none" xmlns="http://www.w3.org/2000/svg" xmlns:xlink="http://www.w3.org/1999/xlink">
<path d="M8.617,11.436L1.187,2.52C0.992,2.287 0.868,2.002 0.83,1.701C0.791,1.399 0.839,1.093 0.968,0.817C1.097,0.542 1.302,0.309 1.558,0.146C1.815,-0.017 2.113,-0.104 2.417,-0.104L15.585,-0.104C15.889,-0.103 16.187,-0.016 16.443,0.147C16.699,0.31 16.904,0.543 17.033,0.818C17.162,1.094 17.209,1.4 17.17,1.701C17.132,2.003 17.008,2.287 16.813,2.52L9.385,11.436C9.338,11.493 9.279,11.538 9.213,11.569C9.147,11.6 9.074,11.616 9.001,11.616C8.928,11.616 8.855,11.6 8.789,11.569C8.723,11.538 8.664,11.493 8.617,11.436Z" fill="#000000"/>
</svg>
