<svg width="42" height="40" viewBox="0 0 42 40" fill="none" xmlns="http://www.w3.org/2000/svg" xmlns:xlink="http://www.w3.org/1999/xlink">
<path d="M39,21.074C39.828,21.074 40.5,20.402 40.5,19.574C40.5,18.746 39.828,18.074 39,18.074L39,21.074ZM14.29,18.074C13.462,18.074 12.79,18.746 12.79,19.574C12.79,20.402 13.462,21.074 14.29,21.074L14.29,18.074ZM2,18.074C1.172,18.074 0.5,18.746 0.5,19.574C0.5,20.402 1.172,21.074 2,21.074L2,18.074ZM39,34.288C39.828,34.288 40.5,33.616 40.5,32.788C40.5,31.96 39.828,31.288 39,31.288L39,34.288ZM2,31.288C1.172,31.288 0.5,31.96 0.5,32.788C0.5,33.616 1.172,34.288 2,34.288L2,31.288ZM39,7.86C39.828,7.86 40.5,7.188 40.5,6.36C40.5,5.532 39.828,4.86 39,4.86L39,7.86ZM32.79,4.86C31.962,4.86 31.29,5.532 31.29,6.36C31.29,7.188 31.962,7.86 32.79,7.86L32.79,4.86ZM2,4.86C1.172,4.86 0.5,5.532 0.5,6.36C0.5,7.188 1.172,7.86 2,7.86L2,4.86ZM28.428,10.72L28.428,12.22L28.428,10.72ZM32.788,6.36L34.288,6.36L32.788,6.36ZM14.288,19.574L15.788,19.574L14.288,19.574ZM23.142,37.15L23.142,38.65L23.142,37.15ZM23.142,28.428L23.142,26.928L23.142,28.428ZM39,18.074L14.29,18.074L14.29,21.074L39,21.074L39,18.074ZM5.568,18.074L2,18.074L2,21.074L5.568,21.074L5.568,18.074ZM39,31.288L27.504,31.288L27.504,34.288L39,34.288L39,31.288ZM18.782,31.288L2,31.288L2,34.288L18.782,34.288L18.782,31.288ZM39,4.86L32.79,4.86L32.79,7.86L39,7.86L39,4.86ZM24.068,4.86L2,4.86L2,7.86L24.068,7.86L24.068,4.86ZM28.428,12.22C29.198,12.22 29.96,12.068 30.671,11.774L29.522,9.002C29.175,9.146 28.804,9.22 28.428,9.22L28.428,12.22ZM30.671,11.774C31.381,11.479 32.027,11.048 32.572,10.504L30.45,8.382C30.185,8.648 29.869,8.859 29.522,9.002L30.671,11.774ZM32.572,10.504C33.116,9.96 33.547,9.314 33.842,8.603L31.07,7.454C30.927,7.801 30.716,8.117 30.45,8.382L32.572,10.504ZM33.842,8.603C34.136,7.892 34.288,7.13 34.288,6.36L31.288,6.36C31.288,6.736 31.214,7.107 31.07,7.454L33.842,8.603ZM34.288,6.36C34.288,5.59 34.136,4.828 33.842,4.117L31.07,5.266C31.214,5.613 31.288,5.984 31.288,6.36L34.288,6.36ZM33.842,4.117C33.547,3.407 33.116,2.761 32.572,2.216L30.45,4.338C30.716,4.603 30.927,4.919 31.07,5.266L33.842,4.117ZM32.572,2.216C32.027,1.672 31.381,1.241 30.671,0.946L29.522,3.718C29.869,3.861 30.185,4.072 30.45,4.338L32.572,2.216ZM30.671,0.946C29.96,0.652 29.198,0.5 28.428,0.5L28.428,3.5C28.804,3.5 29.175,3.574 29.522,3.718L30.671,0.946ZM28.428,0.5C26.874,0.5 25.383,1.117 24.284,2.216L26.406,4.338C26.942,3.801 27.669,3.5 28.428,3.5L28.428,0.5ZM24.284,2.216C23.185,3.315 22.568,4.806 22.568,6.36L25.568,6.36C25.568,5.601 25.869,4.874 26.406,4.338L24.284,2.216ZM22.568,6.36C22.568,7.914 23.185,9.405 24.284,10.504L26.406,8.382C25.869,7.846 25.568,7.119 25.568,6.36L22.568,6.36ZM24.284,10.504C25.383,11.603 26.874,12.22 28.428,12.22L28.428,9.22C27.669,9.22 26.942,8.919 26.406,8.382L24.284,10.504ZM9.928,25.434C11.482,25.434 12.973,24.817 14.072,23.718L11.95,21.596C11.414,22.133 10.687,22.434 9.928,22.434L9.928,25.434ZM14.072,23.718C15.171,22.619 15.788,21.128 15.788,19.574L12.788,19.574C12.788,20.333 12.487,21.06 11.95,21.596L14.072,23.718ZM15.788,19.574C15.788,18.02 15.171,16.529 14.072,15.43L11.95,17.552C12.487,18.088 12.788,18.815 12.788,19.574L15.788,19.574ZM14.072,15.43C12.973,14.331 11.482,13.714 9.928,13.714L9.928,16.714C10.687,16.714 11.414,17.015 11.95,17.552L14.072,15.43ZM9.928,13.714C8.374,13.714 6.883,14.331 5.784,15.43L7.906,17.552C8.442,17.015 9.17,16.714 9.928,16.714L9.928,13.714ZM5.784,15.43C4.685,16.529 4.068,18.02 4.068,19.574L7.068,19.574C7.068,18.815 7.369,18.088 7.906,17.552L5.784,15.43ZM4.068,19.574C4.068,21.128 4.685,22.619 5.784,23.718L7.906,21.596C7.369,21.06 7.068,20.333 7.068,19.574L4.068,19.574ZM5.784,23.718C6.883,24.817 8.374,25.434 9.928,25.434L9.928,22.434C9.17,22.434 8.442,22.133 7.906,21.596L5.784,23.718ZM23.142,38.65C24.696,38.65 26.187,38.033 27.286,36.933L25.165,34.812C24.628,35.349 23.901,35.65 23.142,35.65L23.142,38.65ZM27.286,36.933C28.385,35.835 29.004,34.343 29.004,32.788L26.004,32.788C26.004,33.546 25.702,34.275 25.165,34.812L27.286,36.933ZM29.004,32.788C29.004,31.232 28.385,29.743 27.286,28.645L25.165,30.766C25.702,31.303 26.004,32.03 26.004,32.788L29.004,32.788ZM27.286,28.645C26.187,27.545 24.696,26.928 23.142,26.928L23.142,29.928C23.901,29.928 24.628,30.229 25.165,30.766L27.286,28.645ZM23.142,26.928C21.588,26.928 20.097,27.545 18.998,28.644L21.12,30.766C21.656,30.229 22.383,29.928 23.142,29.928L23.142,26.928ZM18.998,28.644C17.899,29.743 17.282,31.234 17.282,32.788L20.282,32.788C20.282,32.029 20.583,31.302 21.12,30.766L18.998,28.644ZM17.282,32.788C17.282,34.342 17.899,35.833 18.998,36.932L21.12,34.81C20.583,34.274 20.282,33.547 20.282,32.788L17.282,32.788ZM18.998,36.932C20.096,38.029 21.586,38.65 23.142,38.65L23.142,35.65C22.385,35.65 21.657,35.348 21.12,34.81L18.998,36.932Z" fill="#000000"/>
</svg>
